<?xml version="1.0" encoding="iso-8859-1"?>
<!-- Generator: Adobe Illustrator 19.0.0, SVG Export Plug-In . SVG Version: 6.00 Build 0)  -->
<svg version="1.1" id="Capa_1" xmlns="http://www.w3.org/2000/svg" xmlns:xlink="http://www.w3.org/1999/xlink" x="0px" y="0px"
	 viewBox="0 0 512 512" style="enable-background:new 0 0 512 512;" xml:space="preserve">
<polyline style="fill:#B58657;" points="377.292,450.11 372.301,396.697 252.819,250.819 142.66,396.697 137.668,450.11 "/>
<path style="fill:#5C5E70;" d="M166.808,26.83L139.591,9.452C119.762-3.21,93.399,2.923,81.194,23.035l-58.439,96.301
	c-22.099,36.416-9.919,83.884,26.985,105.161l28.749,16.575"/>
<path style="fill:#B58657;" d="M345.192,26.83l27.217-17.378c19.828-12.661,46.192-6.529,58.397,13.584l58.439,96.301
	c22.099,36.416,9.919,83.884-26.985,105.161l-28.749,16.575"/>
<path style="fill:#C69A6A;" d="M330.099,403.805h-21.077c-29.279,0-53.021-23.742-53.021-53.032
	c0,21.149-12.381,39.406-30.277,47.917h-0.01c-6.885,3.283-14.593,5.115-22.734,5.115h-21.087
	c-67.512,0-119.442-59.701-110.098-126.574l18.627-133.192c5.773-41.3,26.326-77.299,55.852-102.986
	C165.487,24.339,188.499,12,213.713,5.413C227.256,1.873,241.437,0,256.001,0c83.392,0,154.032,61.45,165.579,144.039
	l18.628,133.192C449.551,344.104,397.62,403.805,330.099,403.805z"/>
<path style="fill:#5C5E70;" d="M235.56,342.732l-22.654-39.237c-12.196-21.124,3.049-47.53,27.441-47.53h31.301
	c24.392,0,39.637,26.406,27.441,47.53l-22.654,39.237C267.353,358.465,244.644,358.465,235.56,342.732z"/>
<path style="fill:#B58657;" d="M225.712,398.69c-6.885,3.283-14.593,5.115-22.734,5.115h-21.087
	c-67.512,0-119.442-59.701-110.098-126.574l18.627-133.192c5.773-41.3,26.326-77.299,55.852-102.986
	C165.486,24.339,188.498,12,213.712,5.413c-32.933,21.622-89.402,109.717-61.749,153.353c0,0-27.395,21.024-36.02,75.127
	C104.623,304.904,116.274,370.77,225.712,398.69z"/>
<g>
	<path style="fill:#5C5E70;" d="M332.375,233.925c-4.264,0-7.719-3.456-7.719-7.719v-23.806c0-4.263,3.455-7.719,7.719-7.719
		c4.264,0,7.719,3.456,7.719,7.719v23.806C340.094,230.47,336.639,233.925,332.375,233.925z"/>
	<path style="fill:#5C5E70;" d="M179.621,233.925c-4.263,0-7.719-3.456-7.719-7.719v-23.806c0-4.263,3.456-7.719,7.719-7.719
		s7.719,3.456,7.719,7.719v23.806C187.339,230.47,183.883,233.925,179.621,233.925z"/>
</g>
<rect x="124.012" y="450.106" style="fill:#34ABE0;" width="263.965" height="54.171"/>
<rect x="124.012" y="450.106" style="fill:#279FC9;" width="41.33" height="54.171"/>
<rect x="226.113" y="450.106" style="fill:#FFD15C;" width="59.783" height="54.171"/>
<path style="fill:#F4A14E;" d="M285.887,512h-59.778c-4.263,0-7.719-3.456-7.719-7.719V450.11c0-4.263,3.456-7.719,7.719-7.719
	h59.778c4.264,0,7.719,3.456,7.719,7.719v54.171C293.605,508.544,290.151,512,285.887,512z M233.828,496.563h44.341v-38.734h-44.341
	V496.563z"/>
<path style="fill:#797B89;" d="M278.548,283.292h-30.874c-3.411,0-6.175-2.764-6.175-6.175l0,0c0-3.411,2.764-6.175,6.175-6.175
	h30.874c3.411,0,6.175,2.764,6.175,6.175l0,0C284.723,280.528,281.959,283.292,278.548,283.292z"/>
<g>
</g>
<g>
</g>
<g>
</g>
<g>
</g>
<g>
</g>
<g>
</g>
<g>
</g>
<g>
</g>
<g>
</g>
<g>
</g>
<g>
</g>
<g>
</g>
<g>
</g>
<g>
</g>
<g>
</g>
</svg>
