<svg height="512pt" viewBox="0 0 512.001 512" width="512pt" xmlns="http://www.w3.org/2000/svg"><path d="m440.402344 161.253906v337.410156h-368.804688v-337.410156l184.402344-123.136718zm0 0" fill="#4dd0e1"/><path d="m409.496094 140.371094v358.292968h30.90625v-337.410156zm0 0" fill="#26c6da"/><path d="m38.503906 172.039062h33.09375v326.625h-33.09375zm0 0" fill="#eceff1"/><path d="m440.402344 172.039062h33.09375v326.625h-33.09375zm0 0" fill="#eceff1"/><g fill="#26c6da"><path d="m71.597656 419.285156h368.804688v79.378906h-368.804688zm0 0"/><path d="m71.597656 295.664062h368.804688v61.808594h-368.804688zm0 0"/><path d="m71.597656 172.039062h368.804688v61.8125h-368.804688zm0 0"/></g><path d="m409.496094 419.285156h30.90625v79.378906h-30.90625zm0 0" fill="#00bcd4"/><path d="m409.496094 295.664062h30.90625v61.808594h-30.90625zm0 0" fill="#00bcd4"/><path d="m409.496094 172.039062h30.90625v61.8125h-30.90625zm0 0" fill="#00bcd4"/><path d="m496.546875 512h-481.09375c-8.535156 0-15.453125-6.917969-15.453125-15.453125 0-8.53125 6.917969-15.453125 15.453125-15.453125h481.09375c8.535156 0 15.453125 6.917969 15.453125 15.453125s-6.917969 15.453125-15.453125 15.453125zm0 0" fill="#bf6024"/><path d="m496.546875 481.09375h-30.90625c8.535156 0 15.453125 6.917969 15.453125 15.453125s-6.917969 15.453125-15.453125 15.453125h30.90625c8.535156 0 15.453125-6.917969 15.453125-15.453125 0-8.53125-6.917969-15.453125-15.453125-15.453125zm0 0" fill="#a34a18"/><path d="m363.992188 110.230469h-215.984376l92.558594-61.8125h30.867188zm0 0" fill="#26c6da"/><path d="m353.867188 481.09375h-195.734376v-148.71875c0-54.050781 43.816407-97.867188 97.867188-97.867188s97.867188 43.816407 97.867188 97.867188zm0 0" fill="#455a64"/><path d="m256 234.507812c-5.257812 0-10.417969.417969-15.453125 1.21875 46.707031 7.40625 82.414063 47.855469 82.414063 96.644532v148.722656h30.90625v-148.71875c0-54.050781-43.816407-97.867188-97.867188-97.867188zm0 0" fill="#37474f"/><path d="m512 204.417969c0 12.917969-14.476562 20.550781-25.132812 13.25l-225.046876-154.136719c-3.507812-2.402344-8.132812-2.402344-11.640624 0l-225.046876 154.136719c-10.65625 7.300781-25.132812-.332031-25.132812-13.25 0-19.5625 9.648438-37.863281 25.785156-48.917969l224.394532-153.695312c3.507812-2.40625 8.132812-2.40625 11.640624 0l224.394532 153.695312c16.136718 11.054688 25.785156 29.355469 25.785156 48.917969zm0 0" fill="#ff7043"/><path d="m512 204.417969c0 12.917969-14.476562 20.546875-25.132812 13.246093l-5.773438-3.953124-219.273438-150.179688c-3.511718-2.398438-8.128906-2.398438-11.640624 0l-225.046876 154.136719c-10.65625 7.300781-25.132812-.332031-25.132812-13.25l250.179688-171.347657c3.511718-2.402343 8.128906-2.402343 11.640624 0l199.925782 136.929688c8.203125 5.617188 19.347656-.257812 19.347656-10.199219v-7.804687l5.121094 3.507812c16.136718 11.050782 25.785156 29.351563 25.785156 48.914063zm0 0" fill="#ff5722"/></svg>