<?xml version="1.0" encoding="iso-8859-1"?>
<!-- Generator: Adobe Illustrator 19.0.0, SVG Export Plug-In . SVG Version: 6.00 Build 0)  -->
<svg version="1.1" id="Capa_1" xmlns="http://www.w3.org/2000/svg" xmlns:xlink="http://www.w3.org/1999/xlink" x="0px" y="0px"
	 viewBox="0 0 511.999 511.999" style="enable-background:new 0 0 511.999 511.999;" xml:space="preserve">
<g>
	<g>
		<path d="M255.999,70.064c-80.026,0-145.132,65.106-145.132,145.132s65.106,145.132,145.132,145.132
			s145.132-65.106,145.132-145.132S336.025,70.064,255.999,70.064z M255.999,330.3c-63.469,0-115.105-51.636-115.105-115.105
			c0-63.469,51.636-115.104,115.105-115.104s115.104,51.636,115.104,115.104C371.104,278.664,319.468,330.3,255.999,330.3z"/>
	</g>
</g>
<g>
	<g>
		<path d="M471.195,215.195c0-20-9.006-38.597-24.719-51.056c7.387-18.613,5.888-39.222-4.112-56.542
			c-10-17.32-27.098-28.922-46.936-31.856c-2.91-19.813-14.512-36.91-31.832-46.911c-17.321-10-37.929-11.498-56.575-4.121
			C294.597,9.006,276,0,255.999,0c-20,0-38.597,9.006-51.056,24.718c-18.613-7.387-39.222-5.888-56.541,4.112
			c-17.32,9.999-28.922,27.098-31.857,46.936c-19.812,2.91-36.911,14.512-46.91,31.832c-10,17.32-11.498,37.928-4.121,56.575
			c-15.704,12.425-24.71,31.022-24.71,51.022c0,19.999,9.006,38.596,24.718,51.056c-7.386,18.613-5.887,39.222,4.112,56.541
			c9.999,17.32,27.098,28.922,46.936,31.857c0.105,0.713,0.245,1.414,0.372,2.12l-47.747,80.313l77.8,15.919l52.315,58.997
			l48.804-82.092c2.597,0.312,13.173,0.312,15.769,0l48.804,82.092l52.315-58.997l77.8-15.92l-47.732-80.289
			c0.131-0.722,0.275-1.439,0.383-2.169c19.812-2.91,36.909-14.512,46.91-31.831c10-17.321,11.498-37.929,4.121-56.576
			C462.189,253.791,471.195,235.195,471.195,215.195z M194.505,461.323l-31.684-35.73l-46.236-9.462l16.166-27.191
			c4.473,4.917,9.717,9.194,15.651,12.62c17.32,9.999,37.928,11.498,56.575,4.121c4.205,5.314,9.129,9.84,14.563,13.531
			L194.505,461.323z M395.414,416.13l-46.235,9.462l-31.685,35.73l-25.034-42.108c5.442-3.692,10.376-8.222,14.595-13.542
			c18.612,7.386,39.223,5.888,56.541-4.112c5.934-3.426,11.178-7.703,15.651-12.62L395.414,416.13z M427.854,242.67
			c-10.489,8.299-14.22,22.228-9.286,34.657c3.982,10.03,3.177,21.128-2.206,30.451c-5.383,9.323-14.593,15.569-25.268,17.138
			c-13.233,1.943-23.428,12.138-25.372,25.371c-1.567,10.676-7.814,19.886-17.137,25.269c-9.321,5.382-20.424,6.187-30.451,2.207
			c-12.433-4.934-26.36-1.203-34.658,9.286c-6.695,8.462-16.709,13.315-27.475,13.315c-10.765,0-20.78-4.853-27.475-13.315
			c-5.858-7.403-14.519-11.439-23.479-11.439c-3.734,0-7.522,0.702-11.178,2.153c-10.03,3.981-21.128,3.176-30.452-2.206
			c-9.322-5.382-15.569-14.593-17.137-25.268c-1.943-13.233-12.139-23.429-25.371-25.372c-10.676-1.567-19.886-7.814-25.269-17.137
			s-6.187-20.422-2.207-30.451c4.935-12.43,1.202-26.359-9.285-34.658c-8.463-6.696-13.315-16.71-13.315-27.475
			s4.853-20.78,13.315-27.475c10.489-8.299,14.221-22.228,9.286-34.657c-3.981-10.03-3.176-21.129,2.206-30.452
			c5.382-9.322,14.593-15.569,25.268-17.137c13.233-1.943,23.429-12.139,25.372-25.371c1.567-10.676,7.814-19.886,17.137-25.269
			c9.323-5.382,20.422-6.187,30.451-2.207c12.429,4.934,26.358,1.203,34.658-9.286c6.695-8.463,16.709-13.316,27.474-13.316
			c10.766,0,20.78,4.853,27.475,13.315c8.298,10.489,22.228,14.221,34.657,9.286c10.028-3.981,21.128-3.176,30.452,2.206
			c9.322,5.382,15.569,14.593,17.137,25.268c1.943,13.233,12.139,23.429,25.371,25.372c10.676,1.567,19.886,7.814,25.269,17.138
			c5.383,9.322,6.188,20.422,2.206,30.451c-4.933,12.43-1.201,26.359,9.286,34.659c8.462,6.695,13.315,16.709,13.315,27.475
			C441.168,225.96,436.315,235.974,427.854,242.67z"/>
	</g>
</g>
<g>
	<g>
		<path d="M255.999,218.85c-26.58,0-53.16,37.544-53.16,59.805c0,9.175,11.901,16.613,26.58,16.613
			c11.629,0,15.284-4.984,26.58-4.984c11.296,0,14.952,4.984,26.58,4.984c14.68,0,26.58-7.438,26.58-16.613
			C309.16,256.395,282.58,218.85,255.999,218.85z"/>
	</g>
</g>
<g>
	<g>
		<ellipse cx="226.095" cy="168.343" rx="19.935" ry="33.23"/>
	</g>
</g>
<g>
	<g>
		<ellipse cx="285.9" cy="168.343" rx="19.935" ry="33.23"/>
	</g>
</g>
<g>
	<g>
		<ellipse transform="matrix(0.866 -0.5 0.5 0.866 -81.9358 124.3956)" cx="191.152" cy="215.089" rx="13.29" ry="19.935"/>
	</g>
</g>
<g>
	<g>
		<ellipse transform="matrix(0.5 -0.866 0.866 0.5 -25.862 385.4058)" cx="320.845" cy="215.1" rx="19.935" ry="13.29"/>
	</g>
</g>
<g>
</g>
<g>
</g>
<g>
</g>
<g>
</g>
<g>
</g>
<g>
</g>
<g>
</g>
<g>
</g>
<g>
</g>
<g>
</g>
<g>
</g>
<g>
</g>
<g>
</g>
<g>
</g>
<g>
</g>
</svg>
