<svg height="496pt" viewBox="-104 0 496 496" width="496pt" xmlns="http://www.w3.org/2000/svg"><path d="m144 336c-39.878906 0-72 48.144531-72 88 0 12.617188 3.238281 21.96875 9.902344 28.574219 11.882812 11.785156 31.257812 11.59375 53.699218 11.472656l8.398438-.046875 8.398438.046875c2.671874.015625 5.304687.042969 7.882812.042969 19.0625 0 35.351562-1.128906 45.816406-11.503906 6.664063-6.617188 9.902344-15.96875 9.902344-28.585938 0-39.855469-32.121094-88-72-88zm-56 88c0-31.734375 26.367188-72 56-72 10.703125 0 20.960938 5.296875 29.71875 13.503906-10.734375 30.855469-31.488281 57.167969-59.34375 74.585938l-10.117188 6.316406c-4.671874-1.015625-8.496093-2.613281-11.089843-5.183594-3.480469-3.453125-5.167969-9.085937-5.167969-17.222656zm106.832031 17.222656c-7.160156 7.089844-23.449219 6.921875-42.3125 6.824219l-8.519531-.046875-8.519531.046875c-1.550781.007813-3.046875.015625-4.558594.023437 24.308594-17.351562 43.140625-41.007812 54.558594-68.46875 8.902343 13.453126 14.519531 29.804688 14.519531 44.398438 0 8.136719-1.6875 13.769531-5.167969 17.222656zm0 0"/><path d="m88 296c0 17.945312 10.542969 32 24 32s24-14.054688 24-32-10.542969-32-24-32-24 14.054688-24 32zm32 0c0 9.769531-4.734375 16-8 16s-8-6.230469-8-16 4.734375-16 8-16 8 6.230469 8 16zm0 0"/><path d="m152 296c0 17.945312 10.542969 32 24 32s24-14.054688 24-32-10.542969-32-24-32-24 14.054688-24 32zm32 0c0 9.769531-4.734375 16-8 16s-8-6.230469-8-16 4.734375-16 8-16 8 6.230469 8 16zm0 0"/><path d="m56 312c-13.457031 0-24 14.054688-24 32s10.542969 32 24 32 24-14.054688 24-32-10.542969-32-24-32zm0 48c-3.265625 0-8-6.230469-8-16s4.734375-16 8-16 8 6.230469 8 16-4.734375 16-8 16zm0 0"/><path d="m208 344c0 17.945312 10.542969 32 24 32s24-14.054688 24-32-10.542969-32-24-32-24 14.054688-24 32zm32 0c0 9.769531-4.734375 16-8 16s-8-6.230469-8-16 4.734375-16 8-16 8 6.230469 8 16zm0 0"/><path d="m280 48h-112v-48h-16v104h-16v-104h-16v48h-112c-4.414062 0-8 3.574219-8 8v432c0 4.425781 3.585938 8 8 8h272c4.414062 0 8-3.574219 8-8v-432c0-4.425781-3.585938-8-8-8zm-120 72c4.414062 0 8-3.574219 8-8v-23.976562c9.871094 7.425781 16 19.183593 16 31.976562 0 22.054688-17.945312 40-40 40s-40-17.945312-40-40c0-12.792969 6.128906-24.550781 16-31.976562v23.976562c0 4.425781 3.585938 8 8 8zm112 360h-256v-416h104v5.558594c-19.304688 9.203125-32 28.722656-32 50.441406 0 30.871094 25.121094 56 56 56s56-25.128906 56-56c0-21.71875-12.695312-41.238281-32-50.441406v-5.558594h104zm0 0"/><path d="m48 192h192v16h-192zm0 0"/><path d="m64 224h160v16h-160zm0 0"/></svg>