<?xml version="1.0"?>
<svg xmlns="http://www.w3.org/2000/svg" viewBox="0 0 512 512" width="512" height="512"><g id="outline"><path d="M352.241,268.8a31.548,31.548,0,0,0-22.456,9.3L320,287.887l-9.784-9.784A31.759,31.759,0,1,0,265.3,323.016l49.041,49.042a8,8,0,0,0,11.314,0L374.7,323.016A31.759,31.759,0,0,0,352.241,268.8Zm11.144,42.9h0L320,355.087,276.615,311.7A15.759,15.759,0,0,1,298.9,289.416l15.441,15.441a8,8,0,0,0,11.314,0L341.1,289.415A15.759,15.759,0,0,1,363.385,311.7Z"/><path d="M476.079,145.117l-216-128a8,8,0,0,0-8.179.014L35.9,146.052a8,8,0,0,0-3.9,6.869v336a8,8,0,0,0,8,8h.017l432-.921A8,8,0,0,0,480,488V152A8.005,8.005,0,0,0,476.079,145.117ZM192,272.668V296a8,8,0,0,0,4.422,7.155L224.3,317.094a37.752,37.752,0,0,1,20.268,26.536l3.588,17.939a8,8,0,0,0,2.188,4.088l.811.811a15.982,15.982,0,0,1,1.18,21.308L249.756,391l0,0-2.579,3.224a36.7,36.7,0,0,1-54.61,3.024l-2.907-2.907a8,8,0,0,0-11.314,11.314l2.907,2.907a52.7,52.7,0,0,0,74.546-.014L265.753,421a8,8,0,0,0,4.051,2.695l2.153.616A66.568,66.568,0,0,1,319.51,480h-185.6l-3.1-10.079a191.719,191.719,0,0,1,21.526-159.545l6.416-10.081a8.042,8.042,0,0,0,.406-.717l1.851-3.7A42.919,42.919,0,0,1,192,272.668ZM276.652,409.01l-10.459-13.074a31.963,31.963,0,0,0-2.814-39.833l-3.122-15.612a53.654,53.654,0,0,0-28.8-37.708L208,291.056V266.942l32.724-2.975a8,8,0,0,0,6.431-4.389l8-16a8,8,0,0,0-14.31-7.156l-6.008,12.015L156.016,255.6l-8.922-13.384,1.047-.7a33.72,33.72,0,0,0,13.619-37.457l25.818-12.909a8,8,0,0,0,3.85-4.184l9.8-24.5a27.946,27.946,0,0,1,17.142-16.165l19-6.334a44.19,44.19,0,0,1,8.995-1.969,84.075,84.075,0,0,1,8.594,11.81l8.148,13.581A62.4,62.4,0,0,1,272,195.5v16.727a40,40,0,1,0,80,0,77.971,77.971,0,0,0-.61-9.7q4.806,6.207,9.194,12.775A299.689,299.689,0,0,1,408.64,345.912,296.584,296.584,0,0,1,398.1,466.482L394,480.166l-58.378.125A82.636,82.636,0,0,0,276.652,409.01ZM136.71,226.643a8,8,0,0,1,3.079-11.593l7.2-3.6a17.681,17.681,0,0,1-7.719,16.756l-1.046.7Zm178.218-61.155A62.526,62.526,0,0,1,336,212.223a23.868,23.868,0,0,1-13.266,21.466,24.119,24.119,0,0,1-21.467,0A23.867,23.867,0,0,1,288,212.223V195.5a78.407,78.407,0,0,0-11.171-40.33l-8.148-13.581c-.232-.386-.486-.759-.723-1.142a116.571,116.571,0,0,1,37.3,17.714Q310.208,161.694,314.928,165.488ZM464,480.017l-53.287.113,2.715-9.05a312.5,312.5,0,0,0,11.1-127.037A315.762,315.762,0,0,0,373.9,206.423a235.614,235.614,0,0,0-48.66-53.177c-1.932-1.692-3.951-3.3-6.062-4.809a8.058,8.058,0,0,0-.761-.479c-1.276-.95-2.559-1.894-3.856-2.82a132.55,132.55,0,0,0-51.387-22.262,60.306,60.306,0,0,0-30.858,1.921l-19,6.333a43.918,43.918,0,0,0-26.939,25.4L177.7,178.205l-45.069,22.534a24,24,0,0,0-9.236,34.779l5.945,8.916,0,0,0,0,16,24a8,8,0,0,0,7.38,3.529l7.123-.648a59.447,59.447,0,0,0-13.151,17.4l-1.667,3.334-6.194,9.732a207.691,207.691,0,0,0-23.32,172.84l1.886,6.13L48,480.9V157.463L256.015,33.308,464,156.559Z"/><circle cx="216" cy="352" r="11"/><circle cx="221" cy="189" r="11"/></g></svg>
