<svg id="Capa_1" enable-background="new 0 0 512 512" height="512" viewBox="0 0 512 512" width="512" xmlns="http://www.w3.org/2000/svg"><g><path d="m141.153 110.55c0-4.143-3.358-7.5-7.5-7.5-32.624 0-33.189.001-54.52.001-8.389 0-15.214 6.825-15.214 15.214v28.596c0 5.745 3.201 10.757 7.914 13.345.44 6.071 1.592 12.033 3.44 17.785 1.903 5.963 7.387 9.97 13.647 9.97h118.353c-1.439 12.114-8.163 22.941-18.348 29.576-2.436 1.518 10.104-5.755-78.962 45.666-6.725 3.877-7.995 13.086-2.455 18.653l11.415 11.405c12.125 12.137 30.96 14.621 45.806 6.034l68.739-39.678c5.826-3.362 12.775-5.138 20.086-5.138.139.002.899.001 4.885.001v31.497c-6.853 1.953-11.885 8.271-11.885 15.742v20.628c-8.359.671-14.957 7.688-14.957 16.218v45.579c0 8.084 5.927 14.81 13.663 16.062l-8.884 33.154c-1.072 4.001 1.303 8.114 5.304 9.186 3.984 1.071 8.11-1.289 9.186-5.303l9.868-36.828h23.285c8.972 0 16.271-7.299 16.271-16.271v-24.65h32.857c4.143 0 7.5-3.357 7.5-7.5s-3.357-7.5-7.5-7.5h-32.857v-5.929c0-7.508-5.112-13.844-12.037-15.712v-22.499h127.028c.753 0 1.366.612 1.366 1.365v41.408c0 .753-.613 1.366-1.366 1.366-91.725 0-13.669 0-47.134 0-4.143 0-7.5 3.357-7.5 7.5s3.357 7.5 7.5 7.5h39.779l79.39 137.507h-252.463l6.878-25.67c1.072-4.001-1.303-8.114-5.304-9.186-3.996-1.076-8.113 1.302-9.186 5.303l-8.393 31.323c-1.788 6.674 3.235 13.23 10.152 13.23h266.096c3.742 0 7.229-2.014 9.101-5.255s1.871-7.268 0-10.509l-80.349-139.169c4.677-2.884 7.801-8.054 7.801-13.941v-41.408c0-7.472-5.034-13.791-11.89-15.743v-133.575c0-46.086-30.881-86.913-75.141-99.432-.208-29.24-24.066-52.968-53.401-52.968-6.527 0-11.862 5.2-12.082 11.674-9.353-7.501-21.044-11.674-33.379-11.674-6.682.003-12.118 5.445-12.118 12.133v37.297c-17.266 2.438-30.59 17.313-30.59 35.25 0 10.129-8.241 18.37-18.37 18.37h-16.025c-4.142 0-7.5 3.357-7.5 7.5s3.358 7.5 7.5 7.5h16.025c18.4 0 33.37-14.97 33.37-33.38 0-11.354 9.236-20.59 20.59-20.59h36.2c10.637 0 19.29-8.653 19.29-19.29 0-1.417 0-27.78 0-29.684 19.816 1.473 35.49 18.062 35.49 38.243 0 6.481 4.345 12.22 10.568 13.956 38.019 10.584 64.571 45.576 64.571 85.095v132.953h-131.32v-31.513c20.765-3.569 36.615-21.703 36.615-43.472 0-4.143-3.357-7.5-7.5-7.5s-7.5 3.357-7.5 7.5c0 16.051-13.059 29.109-29.109 29.109-1.224 0 4.431.003-12.05.003-10.572 0-20.088 2.622-27.926 7.146l-68.744 39.681c-8.972 5.19-20.357 3.69-27.694-3.653l-8.518-8.511 73.48-42.423c16.89-9.668 28.068-28.097 28.066-48.59-.002-5.608-4.569-10.171-10.18-10.171h-122.963c-1.11-3.551-1.891-7.198-2.338-10.909 18.303-.661 32.99-15.758 32.99-34.219 0-9.214.001-9.6-.002-9.782h13.589c4.142.001 7.5-3.357 7.5-7.499zm137.975-65.76c0 2.365-1.925 4.29-4.29 4.29h-26.2v-33.975c12.758.941 24.138 8.119 30.49 19.302zm4.89 292.504c.701 0 1.271.57 1.271 1.271v45.579c0 .7-.57 1.271-1.271 1.271-14.808 0-20.011 0-36.151 0-.701 0-1.271-.57-1.271-1.271v-45.579c0-.7.57-1.271 1.271-1.271zm-22.466-35.575c0-.753.612-1.365 1.365-1.365h10.335v21.94h-11.7zm-156.486-173.887c0 10.61-8.632 19.242-19.243 19.242-6.937 0-6.719-.003-6.728-.003-.1-.018-.177-.105-.177-.21v-28.596c0-.118.096-.214.214-.214h25.719c.118 0 .214.096.214.214v9.567z"/><path d="m6.658 248.804c1.076 4.016 5.204 6.374 9.186 5.303l36.137-9.683c4.001-1.071 6.375-5.185 5.304-9.186-1.072-4.001-5.186-6.38-9.186-5.303l-36.137 9.683c-4.001 1.071-6.376 5.185-5.304 9.186z"/><path d="m27.447 183.557c-3.994-1.077-8.113 1.302-9.186 5.303-1.072 4.001 1.303 8.114 5.304 9.186l36.137 9.683c3.984 1.071 8.11-1.289 9.186-5.303 1.072-4.001-1.303-8.114-5.304-9.186z"/><path d="m73.134 257.854-26.454 26.454c-2.929 2.93-2.929 7.678 0 10.607 2.93 2.929 7.678 2.928 10.606 0l26.454-26.454c2.929-2.93 2.929-7.678 0-10.607-2.929-2.928-7.678-2.928-10.606 0z"/></g></svg>