<svg id="Capa_1" enable-background="new 0 0 512 512" height="512" viewBox="0 0 512 512" width="512" xmlns="http://www.w3.org/2000/svg"><g id="XMLID_1148_"><g id="XMLID_353_"><path id="XMLID_557_" d="m507.253 40.498c-16.677-10.298-37.745-10.938-54.98-1.676-15.781 8.481-26.405 24.223-28.561 41.855-7.128 5.8-13.708 12.083-19.712 18.779-2.689-9.292-7.67-17.924-14.706-24.959-14.637-14.64-36.176-20.41-56.209-15.063-3.458.924-6.16 3.625-7.083 7.084-5.346 20.033.427 41.57 15.063 56.208 9.78 9.78 22.643 15.591 36.078 16.783-7.701 15.936-12.911 32.985-15.425 50.55l-7.771-7.771c-6.796-6.796-13.23-15.009-19.672-25.109-12.167-19.078-34.483-28.302-56.854-23.488-22.701 4.879-40.62 23.919-44.588 47.379l-1.809 10.694c-6.548-7.719-14.428-14.869-23.496-21.233-22.768-15.976-50.66-25.139-76.525-25.139-40.898 0-80.929-11.326-115.764-32.755-3.087-1.897-6.955-1.978-10.118-.212-3.162 1.768-5.121 5.108-5.121 8.73 0 0 .012 57.68.035 58.599 1.274 77.42 55.917 142.089 128.664 158.727-21.5 7.459-44.196 11.35-67.046 11.35h-36.076c-5.522 0-10 4.478-10 10v.398c0 1.565.367 3.109 1.073 4.507l55.269 109.472c1.345 2.665 3.811 4.589 6.722 5.247.73.165 1.47.246 2.205.246 2.194 0 4.353-.724 6.12-2.092l48.697-37.688c15.628-12.094 35.117-18.755 54.878-18.755 28.469 0 56.23-7.916 80.285-22.892 4.688-2.919 6.123-9.086 3.204-13.774s-9.084-6.122-13.774-3.204c-20.879 12.999-44.986 19.87-69.715 19.87-24.168 0-48.005 8.146-67.118 22.938l-39.112 30.27-42.684-84.544h20.025c37.317 0 74.273-9.398 107.059-27.19h27.32c5.522 0 10-4.478 10-10s-4.478-10-10-10h-30.38c-45.101 0-85.478-20.607-112.215-52.898 15.833 9.226 34.228 14.519 53.836 14.519h41.728c5.522 0 10-4.478 10-10s-4.478-10-10-10h-41.728c-44.17 0-80.777-32.986-86.492-75.617 17.317 21.561 43.886 35.389 73.629 35.389h23.258c5.522 0 10-4.478 10-10s-4.478-10-10-10h-23.258c-37.997 0-69.412-28.634-73.851-65.453 34.08 17.583 71.906 26.812 110.445 26.812 21.851 0 45.556 7.84 65.037 21.511 20.095 14.101 33.014 32.396 36.377 51.518.957 5.438 6.134 9.081 11.581 8.116 5.439-.956 9.073-6.142 8.116-11.581-1.044-5.939-2.779-11.787-5.152-17.487l5.592-33.065c2.614-15.463 14.297-27.985 29.07-31.161 14.111-3.035 28.162 2.731 35.788 14.689 7.232 11.341 14.558 20.662 22.393 28.498l.097.097c-10.343 6.353-17.256 17.771-17.256 30.772v41.764c0 16.894-3.142 33.342-9.338 48.889-2.045 5.13.456 10.946 5.587 12.991 1.214.484 2.467.714 3.699.714 3.973-.001 7.731-2.385 9.292-6.301 7.14-17.912 10.76-36.853 10.76-56.294v-41.762c0-8.869 7.216-16.085 16.086-16.085.434 0 .861-.034 1.284-.088-.313 16.048 1.604 32.319 5.909 48.382 1.197 4.468 5.237 7.415 9.653 7.415.856 0 1.728-.111 2.594-.344 5.335-1.43 8.501-6.913 7.071-12.247-1.845-6.886-3.172-13.815-4.042-20.745 1.102.062 2.203.099 3.303.099 15.266 0 30.212-5.996 41.239-17.022 14.637-14.638 20.409-36.175 15.063-56.208-.923-3.459-3.625-6.161-7.084-7.084-14.659-3.913-30.121-1.864-43.097 5.247 9.135-23.171 23.965-44.167 43.795-60.84 7.167 3.217 14.889 4.839 22.62 4.839 8.946 0 17.903-2.166 26.01-6.522 17.236-9.262 28.327-27.185 28.945-46.774.113-3.579-1.695-6.945-4.742-8.825zm-163.022 37.165c11.33-1.144 22.761 2.814 30.92 10.976 8.162 8.161 12.123 19.595 10.977 30.92-11.326 1.144-22.76-2.813-30.92-10.976-8.162-8.161-12.123-19.596-10.977-30.92zm78.345 93.939c1.146 11.324-2.815 22.759-10.977 30.92-8.16 8.162-19.592 12.121-30.92 10.976-1.146-11.324 2.814-22.759 10.977-30.92 8.161-8.161 19.596-12.119 30.92-10.976zm51.007-93.123c-9.156 4.921-20.018 5.446-29.536 1.67 2.104-10.021 8.535-18.789 17.692-23.71 9.157-4.922 20.02-5.445 29.537-1.67-2.104 10.022-8.536 18.789-17.693 23.71z"/><path id="XMLID_713_" d="m298.74 199.622c1.859-1.87 2.93-4.439 2.93-7.07 0-2.63-1.07-5.21-2.93-7.079-1.86-1.86-4.44-2.921-7.07-2.921-2.64 0-5.21 1.061-7.07 2.921-1.87 1.869-2.93 4.449-2.93 7.079 0 2.631 1.06 5.2 2.93 7.07 1.86 1.86 4.431 2.93 7.07 2.93 2.63 0 5.21-1.07 7.07-2.93z"/><path id="XMLID_714_" d="m299.5 350.282c-2.63 0-5.21 1.06-7.07 2.92s-2.93 4.44-2.93 7.08c0 2.63 1.069 5.2 2.93 7.07 1.86 1.859 4.44 2.92 7.07 2.92s5.21-1.061 7.069-2.92c1.86-1.87 2.931-4.44 2.931-7.07 0-2.64-1.07-5.21-2.931-7.08-1.859-1.86-4.439-2.92-7.069-2.92z"/></g></g></svg>