<?xml version="1.0" encoding="UTF-8"?>
<svg xmlns="http://www.w3.org/2000/svg" id="Outline" viewBox="0 0 512 512" width="512" height="512"><path d="M456,16a47.951,47.951,0,0,0-28.684,9.517A103.561,103.561,0,0,0,384,16c-29.479,0-57.478,12.548-78.837,35.333A123.218,123.218,0,0,0,272,136v2.868A31.975,31.975,0,0,0,296,192a32.234,32.234,0,0,0,3.28-.173,88.124,88.124,0,0,0,25.159,40.891q-1.116.891-2.141,1.857a103.493,103.493,0,0,0-38.781,32.776C275.7,260.07,264.78,256,248,256a75.791,75.791,0,0,0-15.468,1.447,104.261,104.261,0,0,0-45.57-40.178,87.983,87.983,0,0,0,27.583-49.3c.483.021.969.034,1.455.034a32.036,32.036,0,0,0,32-32V80a32.056,32.056,0,0,0-13.32-25.958C237.847,46.535,240,36.751,240,24a8,8,0,0,0-8-8H80A72.081,72.081,0,0,0,8,88v48a32.036,32.036,0,0,0,32,32c.486,0,.972-.013,1.455-.034a87.981,87.981,0,0,0,27.573,49.293A103.979,103.979,0,0,0,8,312V488a8,8,0,0,0,8,8H496a8,8,0,0,0,8-8V328a104.333,104.333,0,0,0-58.3-93.429q-1.021-.966-2.137-1.853a88.127,88.127,0,0,0,25.158-40.886A32.483,32.483,0,0,0,472,192a31.975,31.975,0,0,0,24-53.132V136a125.634,125.634,0,0,0-5.913-38.217A47.539,47.539,0,0,0,504,64,48.053,48.053,0,0,0,456,16ZM296,176a16,16,0,0,1,0-32v24c0,2.692.128,5.354.366,7.985C296.244,175.987,296.123,176,296,176Zm16,84.166a41.6,41.6,0,0,0,.5,5.571,42.326,42.326,0,0,0,1.7,6.869c-.937-.2-1.892-.384-2.871-.525a8.023,8.023,0,0,0-1.138-.081H300.155A89.673,89.673,0,0,1,312,260.166ZM309.581,288c6.957,1.151,13.222,5.228,20.207,13.136l41.447,55.233c5.673,10.622,6.291,20.243,1.782,27.852C367.159,394.1,353.3,400,335.932,400h-.3c-.99-10.362-3.969-16.927-8.353-26.567a365.19,365.19,0,0,1-15.691-39.851c-2.445-7.348-4.562-14.287-6.429-20.409-2.843-9.325-5.428-17.782-8.471-25.173Zm28.388-45.029q3.22,1.983,6.617,3.693c1.577,19.778,10.325,33.4,24.511,38.774A19.51,19.51,0,0,1,359.073,288c-13.341,0-28.194-8.507-30.768-24.766C327.741,259.678,326.963,248.443,337.969,242.971ZM217.4,263.474a38.782,38.782,0,0,0-9.4,8.8V272H185.808a8.023,8.023,0,0,0-1.138.081c-.228.033-.444.083-.67.12V233.594A88.273,88.273,0,0,1,217.4,263.474ZM168,120h16a16,16,0,0,1,0,32H168a16,16,0,0,1,0-32Zm-24.761-4.245A29.333,29.333,0,0,0,128,112c-6.621,0-11.6,1.547-15.271,3.714A31.951,31.951,0,0,0,88,104H72c-.675,0-1.343.028-2.008.069C74.12,96.99,77.807,88.7,79.3,80H187.863a71.081,71.081,0,0,1,11.093,27.722A31.8,31.8,0,0,0,184,104H168A31.951,31.951,0,0,0,143.239,115.755ZM216,152V120a16,16,0,0,1,0,32Zm10.1-84.4A16.024,16.024,0,0,1,232,80v28.305A31.8,31.8,0,0,0,216,104q-.728,0-1.451.034a86.7,86.7,0,0,0-8.531-24.806A38.68,38.68,0,0,0,220.8,72.4,39.574,39.574,0,0,0,226.1,67.6ZM40,152a16,16,0,0,1,0-32Zm9.8-46.463A31.934,31.934,0,0,0,24,108.305V88A56.063,56.063,0,0,1,80,32H223.652c-2.775,30.355-21.3,31.926-23.723,32H72a8,8,0,0,0-8,8c0,8.158-3.627,17.948-10.489,28.311C52.257,102.2,51,103.952,49.8,105.537ZM72,120H88a16,16,0,0,1,0,32H72a16,16,0,0,1,0-32ZM57.071,164.292A31.8,31.8,0,0,0,72,168H88a31.97,31.97,0,0,0,31.542-37.362c.464-.917,2.821-2.638,8.458-2.638,6.328,0,8.112,2.17,8.449,2.69A31.971,31.971,0,0,0,168,168h16a31.8,31.8,0,0,0,14.929-3.708,71.983,71.983,0,0,1-141.858,0ZM136,274.855l25.273,8.589a78.778,78.778,0,0,0-7.288,7.366q-.2.23-.383.473L136,314.739Zm-8-22.446-13.539-13.451a88.479,88.479,0,0,0,27.078,0Zm14.795,7.857L168,235.225v33.607Zm-29.59,0L88,268.832V235.225ZM40,480H24V464H40Zm80,0H56V448h64Zm0-143.939-8.389,11.179a8.166,8.166,0,0,0-.62.962c-8.653,15.818-9.282,31.507-1.771,44.177A41.008,41.008,0,0,0,120,404.218V432H56V344a8,8,0,0,0-16,0V448H24V312a87.987,87.987,0,0,1,48-78.416V280a8,8,0,0,0,10.574,7.574L120,274.855Zm2.983,48.16c-4.509-7.609-3.891-17.23,1.782-27.852l41.447-55.233c6.985-7.908,13.25-11.985,20.207-13.136h12.89c-3.043,7.391-5.628,15.848-8.471,25.173-1.867,6.122-3.984,13.061-6.429,20.409a365.19,365.19,0,0,1-15.691,39.851c-4.384,9.64-7.363,16.2-8.354,26.567h-.3C142.7,400,128.841,394.1,122.983,384.221ZM163.215,432H136V412.374A77.5,77.5,0,0,0,160.068,416h.244A76.755,76.755,0,0,0,163.215,432Zm-2.767,48H136V448h34.88c.158.221.311.452.472.668A74.43,74.43,0,0,0,160.448,480Zm16.111,0a58.456,58.456,0,0,1,6.941-20.447A33.447,33.447,0,0,0,200,464h96a33.447,33.447,0,0,0,16.5-4.447A58.456,58.456,0,0,1,319.441,480ZM200,431.711C200,405.374,223.719,360,248,360s48,45.374,48,71.711C296,444.133,289.38,448,248,448S200,444.133,200,431.711Zm111.035,8.358a35.253,35.253,0,0,0,.965-8.358C312,400.9,285.607,344,248,344s-64,56.9-64,87.711a35.253,35.253,0,0,0,.965,8.358c-5.251-6.446-8.965-16.924-8.965-31.852,0-12.144,2.132-16.833,7.282-28.162a379.172,379.172,0,0,0,16.309-41.42c2.51-7.54,4.656-14.582,6.551-20.8C216.6,283.551,220.118,272,248,272s31.4,11.551,41.858,45.839c1.895,6.214,4.041,13.256,6.551,20.8a379.172,379.172,0,0,0,16.309,41.42c5.15,11.329,7.282,16.018,7.282,28.162C320,423.145,316.286,433.623,311.035,440.069ZM376,480H335.552a74.43,74.43,0,0,0-10.9-31.332c5.783-7.768,9.922-18.592,11.04-32.668h.244c16,0,30.037-4.248,40.068-11.782Zm0-143.939-24.466-32.6a52.277,52.277,0,0,0,7.539.543A35.256,35.256,0,0,0,376,299.953Zm-14.378-82.948a88.174,88.174,0,0,0,44.76,0C403.534,265.657,396.039,272,384,272S364.473,265.657,361.622,253.113Zm61.8-6.455q3.389-1.706,6.605-3.688c11.006,5.473,10.228,16.706,9.665,20.263C437.122,279.493,422.269,288,408.927,288a19.556,19.556,0,0,1-10.037-2.554C413.092,280.077,421.854,266.455,423.426,246.658ZM488,480H472V400h16ZM455.5,265.735a41.484,41.484,0,0,0,.5-5.6A88.307,88.307,0,0,1,488,328v56H472V360a8,8,0,0,0-16,0V480H392V440a8,8,0,1,0,8-8,8,8,0,0,0-8,8V392a8,8,0,1,0,8-8,8,8,0,0,0-8,8V344a8,8,0,1,0,8-8,8,8,0,0,0-8,8V299.953A35.256,35.256,0,0,0,408.927,304C435.524,304,452.488,284.751,455.5,265.735ZM456,168a72,72,0,0,1-144,0V143.379a295.887,295.887,0,0,0,41.676-5.557c30.164-6.464,46.373-16.737,54.626-27.482a69.33,69.33,0,0,0,4.3,6.46c7.635,10.181,21.036,21.958,43.4,25.862ZM415.892,86.685A8,8,0,0,0,400,88c0,19.4-26.9,29.272-49.469,34.133C323.673,127.918,296.271,128,296,128h0a31.961,31.961,0,0,0-7.77.959,106.955,106.955,0,0,1,28.609-66.684C335.139,42.752,358.991,32,384,32s48.861,10.752,67.163,30.275a106.955,106.955,0,0,1,28.609,66.684A31.971,31.971,0,0,0,472,128C423.73,128,416.183,88.337,415.892,86.685ZM472,176c-.123,0-.243-.015-.366-.018.238-2.63.366-5.291.366-7.982V144a16,16,0,0,1,0,32Zm11.242-95.185a121.858,121.858,0,0,0-20.405-29.482A117.533,117.533,0,0,0,443.377,34.6a32.009,32.009,0,0,1,39.865,46.21Z"/><circle cx="352" cy="168" r="8"/><circle cx="416" cy="168" r="8"/><circle cx="80" cy="136" r="8"/><circle cx="176" cy="136" r="8"/><circle cx="272" cy="327.711" r="8"/><circle cx="224" cy="327.711" r="8"/><path d="M402.343,194.343c-.057.057-6.2,5.657-18.343,5.657s-18.286-5.6-18.343-5.657a8,8,0,0,0-11.314,11.313C355.4,206.715,365.229,216,384,216h0c18.772,0,28.6-9.285,29.657-10.344a8,8,0,0,0-11.314-11.313Z"/><path d="M128,200h0c18.772,0,28.6-9.285,29.657-10.344a8,8,0,0,0-11.314-11.313c-.057.057-6.2,5.657-18.343,5.657s-18.286-5.6-18.343-5.657a8,8,0,0,0-11.314,11.313C99.4,190.715,109.229,200,128,200Z"/><path d="M272,432a8,8,0,0,0,0-16c-14.509,0-15.878-6.656-16-8.166V400a8,8,0,0,0,8-8c0-7.756-5.607-16-16-16s-16,8.244-16,16a8,8,0,0,0,8,8v8a7.689,7.689,0,0,1-1.4,3.2c-2.355,3.14-7.4,4.8-14.6,4.8a8,8,0,0,0,0,16c11.841,0,19.3-3.33,24-7.508C252.7,428.67,260.159,432,272,432Zm-16-24.135c0,.088,0,.135,0,.135Z"/></svg>
