<?xml version="1.0" encoding="iso-8859-1"?>
<!-- Generator: Adobe Illustrator 19.0.0, SVG Export Plug-In . SVG Version: 6.00 Build 0)  -->
<svg version="1.1" id="Layer_1" xmlns="http://www.w3.org/2000/svg" xmlns:xlink="http://www.w3.org/1999/xlink" x="0px" y="0px"
	 viewBox="0 0 512.002 512.002" style="enable-background:new 0 0 512.002 512.002;" xml:space="preserve">
<g>
	<ellipse style="fill:#C39B6E;" cx="256.001" cy="487.228" rx="33.032" ry="24.774"/>
	<path style="fill:#C39B6E;" d="M221.262,185.552c0,0-30.087-142.917-154.873-184.669c-10.18-3.406-20.933,3.438-22.541,14.052
		c-6.974,46.005-9.371,163.072,127.867,228.424L221.262,185.552z"/>
</g>
<path style="fill:#9B7855;" d="M174.98,84.2C151.229,50.653,116.44,17.629,66.389,0.882c-10.18-3.406-20.933,3.439-22.541,14.052
	c-6.974,46.005-9.371,163.072,127.866,228.424l6.897-8.045l1.362-4.086C179.972,231.227,193.476,153.263,174.98,84.2z"/>
<path style="fill:#C39B6E;" d="M290.74,185.552c0,0,30.087-142.917,154.873-184.669c10.18-3.406,20.933,3.438,22.541,14.052
	c6.974,46.005,9.371,163.072-127.867,228.424L290.74,185.552z"/>
<path style="fill:#9B7855;" d="M337.022,84.2c23.75-33.547,58.538-66.571,108.591-83.319c10.18-3.406,20.933,3.439,22.541,14.052
	c6.974,46.005,9.371,163.072-127.866,228.424l-6.897-8.045l-1.362-4.085C332.03,231.227,318.526,153.263,337.022,84.2z"/>
<path style="fill:#C39B6E;" d="M379.872,355.098c0,86.655-55.459,132.129-123.871,132.129S132.13,441.753,132.13,355.098
	S187.589,173.42,256.001,173.42S379.872,268.442,379.872,355.098z"/>
<path style="fill:#E1BD93;" d="M274.11,326.041c-1.001-5.746-4.671-10.676-9.888-13.284c-5.176-2.588-11.266-2.588-16.442,0
	c-5.217,2.609-8.887,7.539-9.888,13.284l-18.02,103.38h72.258L274.11,326.041z"/>
<path style="fill:#FFDEB7;" d="M276.646,412.905c-8.099,0-15.397,4.787-20.645,12.453c-5.248-7.668-12.547-12.453-20.645-12.453
	c-15.963,0-28.903,18.487-28.903,41.29s12.94,41.29,28.903,41.29c4.628,0,8.994-1.563,12.866-4.333c4.556-3.26,11.001-3.26,15.557,0
	c3.872,2.77,8.238,4.333,12.867,4.333c15.963,0,28.903-18.487,28.903-41.29C305.549,431.39,292.609,412.905,276.646,412.905z"/>
<path style="fill:#9B7855;" d="M292.13,418.066c0,15.963-16.176,36.129-36.129,36.129s-36.129-20.166-36.129-36.129
	s16.176-21.677,36.129-21.677C275.954,396.389,292.13,402.103,292.13,418.066z"/>
<g>
	<circle style="fill:#464655;" cx="194.065" cy="309.679" r="20.645"/>
	<circle style="fill:#464655;" cx="317.936" cy="309.679" r="20.645"/>
</g>
<g>
</g>
<g>
</g>
<g>
</g>
<g>
</g>
<g>
</g>
<g>
</g>
<g>
</g>
<g>
</g>
<g>
</g>
<g>
</g>
<g>
</g>
<g>
</g>
<g>
</g>
<g>
</g>
<g>
</g>
</svg>
