<svg height="511pt" viewBox="-117 0 511 511.99939" width="511pt" xmlns="http://www.w3.org/2000/svg"><path d="m84.703125 91.222656-42.667969-85.335937c-1.34375-2.707031-3.796875-4.691407-6.71875-5.503907-2.921875-.808593-6.058594-.320312-8.597656 1.324219-2.6875 1.726563-26.21875 18.496094-26.21875 72.960938 0 57.789062 27.347656 63.445312 30.464844 63.890625.511718.066406 1.023437.109375 1.535156.109375 2.28125 0 4.542969-.75 6.398438-2.136719l42.667968-32c4.117188-3.09375 5.441406-8.703125 3.136719-13.308594zm0 0" fill="#5d4037"/><path d="m251.613281 1.707031c-2.539062-1.644531-5.671875-2.132812-8.597656-1.324219-2.921875.8125-5.375 2.816407-6.71875 5.527344l-42.667969 85.332032c-2.300781 4.585937-.980468 10.195312 3.136719 13.289062l42.667969 32c1.855468 1.367188 4.09375 2.136719 6.398437 2.136719.511719 0 1.023438-.042969 1.535157-.109375 3.117187-.445313 30.464843-6.101563 30.464843-63.890625 0-54.464844-23.53125-71.234375-26.21875-72.960938zm0 0" fill="#5d4037"/><path d="m256.328125 308.863281c11.542969-26.730469 21.503906-49.8125 21.503906-84.863281 0-98.007812-62.527343-138.667969-96-138.667969h-85.332031c-33.472656 0-96 40.660157-96 138.667969 0 35.050781 9.960938 58.132812 21.503906 84.863281 6.785156 15.722657 14.484375 33.558594 21.632813 56.9375 12.925781 42.285157 8.9375 53.738281 4.714843 65.855469-2.433593 6.957031-5.183593 14.828125-5.183593 27.011719 0 39.082031 48.53125 52.433593 50.601562 52.96875.894531.234375 1.8125.363281 2.730469.363281h85.332031c.917969 0 1.835938-.128906 2.730469-.363281 2.070312-.535157 50.605469-13.886719 50.605469-52.96875 0-12.183594-2.753907-20.054688-5.1875-27.03125-4.222657-12.117188-8.210938-23.550781 4.714843-65.855469 7.148438-23.359375 14.828126-41.195312 21.632813-56.917969zm0 0" fill="#795548"/><path d="m139.167969 53.332031c-14.59375 0-53.335938 0-53.335938 53.335938 0 20.796875 10.667969 39.421875 20.992188 57.40625 10.667969 18.582031 21.675781 37.78125 21.675781 59.925781 0 5.886719 4.777344 10.667969 10.667969 10.667969 5.886719 0 10.664062-4.78125 10.664062-10.667969 0-22.125 11.03125-41.34375 21.675781-59.925781 10.324219-17.984375 20.992188-36.609375 20.992188-57.40625 0-53.335938-38.742188-53.335938-53.332031-53.335938zm0 0" fill="#424242"/><path d="m117.832031 469.332031c-1.597656 0-3.21875-.363281-4.757812-1.128906-6.398438-3.179687-27.242188-14.847656-27.242188-30.871094 0-5.886719 4.78125-10.664062 10.667969-10.664062 5.78125 0 10.472656 4.585937 10.667969 10.324219 1.023437 2.730468 8.574219 8.660156 15.464843 12.117187 5.269532 2.667969 7.382813 9.066406 4.734376 14.335937-1.875 3.734376-5.628907 5.886719-9.535157 5.886719zm-10.664062-32"/><path d="m117.832031 362.667969c-5.886719 0-10.664062-4.78125-10.664062-10.667969 0-80.042969-40.511719-142.847656-40.917969-143.488281-3.222656-4.929688-1.855469-11.542969 3.070312-14.761719 4.929688-3.222656 11.519532-1.855469 14.761719 3.070312 1.816407 2.730469 44.417969 68.542969 44.417969 155.179688 0 5.886719-4.777344 10.667969-10.667969 10.667969zm0 0"/><path d="m32.542969 138.667969c-.511719 0-1.046875-.042969-1.578125-.109375-3.117188-.445313-30.464844-6.101563-30.464844-63.890625 0-54.464844 23.53125-71.234375 26.21875-72.960938 2.539062-1.644531 5.675781-2.132812 8.597656-1.324219 2.921875.8125 5.375 2.816407 6.71875 5.527344l42.667969 85.332032c2.644531 5.269531.488281 11.667968-4.78125 14.316406-5.265625 2.644531-11.667969.46875-14.292969-4.78125l-35.175781-70.355469c-4.246094 8.363281-8.621094 22.3125-8.621094 44.246094 0 31.828125 9.34375 41.769531 12.949219 42.921875 5.824219.851562 9.496094 6.1875 8.640625 12.007812-.765625 5.3125-5.609375 9.070313-10.878906 9.070313zm0 0"/><path d="m139.167969 234.667969c-5.890625 0-10.667969-4.78125-10.667969-10.667969 0-22.125-11.03125-41.34375-21.675781-59.925781-10.324219-17.984375-20.992188-36.609375-20.992188-57.40625 0-53.335938 38.742188-53.335938 53.335938-53.335938 14.589843 0 53.332031 0 53.332031 53.335938 0 20.796875-10.667969 39.421875-20.992188 57.40625-10.644531 18.582031-21.675781 37.800781-21.675781 59.925781 0 5.886719-4.777343 10.667969-10.664062 10.667969zm0-160c-18.730469 0-32 2.28125-32 32 0 15.125 8.832031 30.503906 18.175781 46.78125 4.691406 8.191406 9.621094 16.789062 13.824219 26.027343 4.199219-9.238281 9.152343-17.835937 13.824219-26.027343 9.34375-16.277344 18.175781-31.65625 18.175781-46.78125 0-29.71875-13.269531-32-32-32zm0 0"/><path d="m181.832031 512h-85.332031c-.917969 0-1.835938-.128906-2.730469-.363281-2.070312-.535157-50.601562-13.886719-50.601562-52.96875 0-12.183594 2.75-20.054688 5.183593-27.03125 4.222657-12.117188 8.210938-23.550781-4.714843-65.855469-7.148438-23.382812-14.828125-41.214844-21.632813-56.9375-11.542968-26.710938-21.503906-49.792969-21.503906-84.84375 0-98.007812 62.527344-138.667969 96-138.667969 5.886719 0 10.667969 4.78125 10.667969 10.667969s-4.78125 10.667969-10.667969 10.667969c-25.214844 0-74.667969 35.433593-74.667969 117.332031 0 30.632812 8.300781 49.835938 19.753907 76.394531 7.019531 16.253907 14.957031 34.667969 22.445312 59.136719 13.886719 45.480469 10.625 61.480469 4.457031 79.125-2.152343 6.164062-3.988281 11.457031-3.988281 20.011719 0 20.242187 27.414062 30.058593 33.558594 32h82.21875c6.140625-1.941407 33.554687-11.757813 33.554687-32 0-8.554688-1.832031-13.847657-3.988281-20.011719-6.164062-17.644531-9.429688-33.644531 4.457031-79.125 7.488281-24.46875 15.425781-42.902344 22.445313-59.136719 11.476562-26.558593 19.753906-45.78125 19.753906-76.394531 0-81.898438-49.449219-117.332031-74.667969-117.332031-5.886719 0-10.664062-4.78125-10.664062-10.667969s4.777343-10.667969 10.664062-10.667969c33.472657 0 96 40.660157 96 138.667969 0 35.050781-9.960937 58.132812-21.503906 84.863281-6.78125 15.722657-14.484375 33.558594-21.632813 56.9375-12.925781 42.285157-8.9375 53.738281-4.714843 65.855469 2.433593 6.957031 5.1875 14.828125 5.1875 27.011719 0 39.082031-48.535157 52.433593-50.605469 52.96875-.894531.234375-1.8125.363281-2.730469.363281zm.023438-10.667969h.210937zm0 0"/><path d="m160.5 469.332031c-3.90625 0-7.660156-2.152343-9.535156-5.867187-2.644532-5.269532-.511719-11.667969 4.734375-14.335938 6.996093-3.519531 14.679687-9.597656 15.511719-12.265625 0-5.886719 4.753906-10.410156 10.644531-10.410156 5.886719 0 10.644531 4.992187 10.644531 10.902344 0 16.019531-20.84375 27.6875-27.222656 30.867187-1.535156.746094-3.15625 1.109375-4.777344 1.109375zm0 0"/><path d="m160.5 362.667969c-5.886719 0-10.667969-4.78125-10.667969-10.667969 0-86.636719 42.605469-152.449219 44.417969-155.179688 3.242188-4.90625 9.855469-6.292968 14.761719-3.070312 4.929687 3.21875 6.292969 9.832031 3.070312 14.761719-.402343.640625-40.914062 63.445312-40.914062 143.488281 0 5.886719-4.78125 10.667969-10.667969 10.667969zm0 0"/><path d="m245.832031 138.667969c-5.226562 0-9.769531-3.820313-10.539062-9.132813-.851563-5.824218 3.179687-11.242187 9.027343-12.097656 2.835938-1 12.179688-10.941406 12.179688-42.769531 0-21.890625-4.375-35.84375-8.617188-44.226563l-35.160156 70.335938c-2.644531 5.25-9.042968 7.425781-14.3125 4.78125-5.269531-2.648438-7.402344-9.046875-4.78125-14.316406l42.667969-85.332032c1.34375-2.710937 3.796875-4.714844 6.71875-5.527344 2.925781-.789062 6.058594-.320312 8.597656 1.324219 2.6875 1.726563 26.21875 18.496094 26.21875 72.960938 0 57.789062-27.347656 63.445312-30.464843 63.890625-.53125.066406-1.042969.109375-1.535157.109375zm0 0"/><path d="m64.5 266.667969c0 5.890625-4.777344 10.664062-10.667969 10.664062s-10.664062-4.773437-10.664062-10.664062c0-5.894531 4.773437-10.667969 10.664062-10.667969s10.667969 4.773438 10.667969 10.667969zm0 0"/><path d="m235.167969 266.667969c0 5.890625-4.777344 10.664062-10.667969 10.664062s-10.667969-4.773437-10.667969-10.664062c0-5.894531 4.777344-10.667969 10.667969-10.667969s10.667969 4.773438 10.667969 10.667969zm0 0"/></svg>