<?xml version="1.0" encoding="iso-8859-1"?>
<!-- Generator: Adobe Illustrator 19.0.0, SVG Export Plug-In . SVG Version: 6.00 Build 0)  -->
<svg version="1.1" id="Capa_1" xmlns="http://www.w3.org/2000/svg" xmlns:xlink="http://www.w3.org/1999/xlink" x="0px" y="0px"
	 viewBox="0 0 511.999 511.999" style="enable-background:new 0 0 511.999 511.999;" xml:space="preserve">
<path style="fill:#886A5E;" d="M348.99,110.602H163.009c-103.536,0-136.626,124.84-130.609,188.01L256,327.188l223.6-28.576
	C485.616,235.442,452.527,110.602,348.99,110.602z"/>
<g>
	<path style="fill:#A18576;" d="M446.918,166.465l-41.029,16.77l-23.074,35.661l31.94,35.593l64.328,7.075l0,0
		C475.816,230.675,465.721,195.24,446.918,166.465z"/>
	<path style="fill:#A18576;" d="M32.918,261.563L32.918,261.563l64.328-7.075l28.739-35.593l-19.873-35.661l-41.029-16.77
		C46.278,195.24,36.184,230.675,32.918,261.563z"/>
</g>
<path style="fill:#F0F0F0;" d="M125.984,389.523c0,0,42.781,23.396,130.015,23.396s130.015-23.396,130.015-23.396v-56.82h-260.03
	V389.523z"/>
<path style="fill:#D9D9D9;" d="M386.015,332.703H125.984v41.955c5.695,3.226,11.807,6.199,18.328,8.906
	c42.8,17.763,92.365,19.681,111.688,19.681s68.887-1.917,111.687-19.681c6.521-2.706,12.633-5.679,18.328-8.906V332.703z"/>
<g>
	<path style="fill:#8EBA85;" d="M32.4,355.766c0,25.736-63.503,61.164-12.701,64.507s139.039-18.049,141.045-64.507l-63.581-28.577
		L32.4,355.766z"/>
	<path style="fill:#8EBA85;" d="M479.599,355.766c0,25.736,63.503,61.164,12.701,64.507s-139.039-18.049-141.045-64.507
		l63.581-28.577L479.599,355.766z"/>
</g>
<g>
	<path style="fill:#80A878;" d="M417.829,349.235c4.335-5.003,8.033-10.284,11.133-15.814l-14.126-6.233l-63.581,28.576
		c0.473,10.96,5.748,20.522,14.196,28.696c0.746-0.299,1.495-0.59,2.237-0.898C388.821,374.791,405.691,363.243,417.829,349.235z"/>
	<path style="fill:#80A878;" d="M83.037,333.422c3.099,5.53,6.798,10.812,11.133,15.814c12.138,14.006,29.008,25.556,50.142,34.328
		c0.742,0.308,1.491,0.6,2.237,0.898c8.447-8.174,13.722-17.737,14.196-28.697l-63.581-28.576L83.037,333.422z"/>
</g>
<path style="fill:#7A6154;" d="M479.599,298.612H32.4c-15.782,0-28.576,12.794-28.576,28.576l0,0
	c0,15.782,12.794,28.577,28.576,28.577H479.6c15.782,0,28.576-12.794,28.576-28.577l0,0
	C508.177,311.406,495.382,298.612,479.599,298.612z"/>
<path style="fill:#A2D497;" d="M256,377.49c59.827,0,158.759-17.38,158.759-89.574S423.448,91.388,256,91.388
	S97.24,215.723,97.24,287.917S196.173,377.49,256,377.49z"/>
<path style="fill:#8EBA85;" d="M128.146,287.917c0-69.897-8.144-188.666,143.306-196.154c-4.977-0.246-10.125-0.374-15.453-0.374
	C88.55,91.389,97.24,215.723,97.24,287.917S196.173,377.49,256,377.49c4.912,0,10.091-0.12,15.453-0.375
	C211.497,374.264,128.146,354.184,128.146,287.917z"/>
<g>
	<path style="fill:#3B484A;" d="M176.787,288.624c-4.268,0-7.726-3.459-7.726-7.726v-14.336c0-4.267,3.458-7.726,7.726-7.726
		s7.726,3.459,7.726,7.726v14.336C184.513,285.164,181.054,288.624,176.787,288.624z"/>
	<path style="fill:#3B484A;" d="M335.212,288.624c-4.268,0-7.726-3.459-7.726-7.726v-14.336c0-4.267,3.458-7.726,7.726-7.726
		c4.268,0,7.726,3.459,7.726,7.726v14.336C342.939,285.164,339.48,288.624,335.212,288.624z"/>
	<path style="fill:#3B484A;" d="M256,296.276c-9.85,0-19.095-4.116-25.368-11.291c-2.809-3.213-2.481-8.094,0.732-10.902
		c3.211-2.808,8.093-2.481,10.901,0.732c3.338,3.819,8.344,6.009,13.734,6.009s10.396-2.19,13.733-6.008
		c2.807-3.213,7.69-3.541,10.901-0.732c3.213,2.808,3.542,7.689,0.732,10.902C275.096,292.161,265.849,296.276,256,296.276z"/>
</g>
<g>
</g>
<g>
</g>
<g>
</g>
<g>
</g>
<g>
</g>
<g>
</g>
<g>
</g>
<g>
</g>
<g>
</g>
<g>
</g>
<g>
</g>
<g>
</g>
<g>
</g>
<g>
</g>
<g>
</g>
</svg>
