<svg height="512" viewBox="0 0 50 58" width="512" xmlns="http://www.w3.org/2000/svg"><g id="Page-1" fill="none" fill-rule="evenodd"><g id="012---Rabbit" fill-rule="nonzero"><path id="Shape" d="m13.67 29.48c-1.22-4.53-3.95-5.03-6.67-10.48-4.6-9.21-3-19-1-19s4 2 10 8c4.2127076 4.3490324 6.9980665 9.8799793 7.984 15.854z" fill="#bdc3c7"/><path id="Shape" d="m27.008 23.848c.9976657-5.9700971 3.7846008-11.4965419 7.992-15.848 6-6 8-8 10-8s3.6 9.79-1 19c-3 6-6 6-7 12z" fill="#bdc3c7"/><path id="Shape" d="m19.84 26.11-6.17 3.37c-1.22-4.53-3.95-5.03-6.67-10.48-4.6-9.21-3-19-1-19 .20868719-.00088566.41676364.02260684.62.07l2.38 6.93c.85816374 2.39160166 1.8599876 4.7291906 3 7 2.1979143 4.2909263 4.8246435 8.3482849 7.84 12.11z" fill="#fb7b76"/><path id="Shape" d="m44 19c-3 6-6 6-7 12l-6.19-4.43c3.1527379-3.8988546 5.8971089-8.1109112 8.19-12.57 1.1400124-2.2708094 2.1418363-4.60839834 3-7l2.38-6.93c.2032364-.04739316.4113128-.07088566.62-.07 2 0 3.6 9.79-1 19z" fill="#fb7b76"/><path id="Shape" d="m41.87 49.55c-.642013 3.6406987-3.4396775 6.5215798-7.06 7.27-1.2965465.2582794-2.6335015.2344052-3.92-.07-.4382897-.1079279-.9009609-.0509838-1.3.16-2.8874264 1.4533757-6.2925736 1.4533757-9.18 0-.3990391-.2109838-.8617103-.2679279-1.3-.16-1.2864985.3044052-2.6234535.3282794-3.92.07-3.3538829-.6894721-6.02601321-3.2223314-6.89385138-6.534545-.86783817-3.3122137.21896451-6.8299568 2.80385138-9.075455.4365618-.3822363.6787717-.9400531.66-1.52-.1466138-2.94933.2743375-5.8993838 1.24-8.69 1.3-3.25 3.02-5.66 6-6.94.6616489-.2823972 1.3478737-.5033281 2.05-.66.337819-2.3444299 1.8180056-4.3679761 3.95-5.4v3s1-1 4-1c-.3420679 1.064822-.6159558 2.1503535-.82 3.25.0109925-.0013232.0219999.002346.03.01.6594724.107636 1.308512.2715687 1.94.49 3.5 1.16 5.43 3.7 6.85 7.25.9656625 2.7906162 1.3866138 5.74067 1.24 8.69-.0187717.5799469.2234382 1.1377637.66 1.52 2.3818658 2.0682927 3.5084205 5.2317492 2.97 8.34z" fill="#d1d4d1"/><path id="Shape" d="m30.12 25.67c.1432184.5349829-.1679592 1.0862118-.7 1.24-.5324877.1426757-1.0807194-.169326-1.23-.7-.200456-.9738381-.1936415-1.9789693.02-2.95.6594724.107636 1.308512.2715687 1.94.49-.1366906.6317395-.1468868 1.2842984-.03 1.92z" fill="#a5a5a4"/><path id="Shape" d="m21.05 23.4c.0016501.0435732-.0017052.0871918-.01.13-.0718998.8213425-.0852669 1.6467601-.04 2.47 0 .5522847-.4477153 1-1 1s-1-.4477153-1-1v-1.94c.6616489-.2823972 1.3478737-.5033281 2.05-.66z" fill="#a5a5a4"/><path id="Shape" d="m16.952 38c0 1.657.377 3-.99 3s-3.962-1.343-3.962-3 .613-3 1.981-3c1.6075009.1025695 2.8840497 1.3915787 2.971 3z" fill="#35495e"/><path id="Shape" d="m33.048 38c0 1.657-.377 3 .99 3s3.962-1.343 3.962-3-.613-3-1.981-3c-1.6075009.1025695-2.8840497 1.3915787-2.971 3z" fill="#35495e"/><g fill="#ecf0f1"><path id="Shape" d="m17 47c-.207971-.00018-.4107116-.0651968-.58-.186-4.6719146-3.0855695-9.98088086-5.0751499-15.53-5.82-.54897104-.0607513-.94475132-.555029-.884-1.104s.55502896-.9447513 1.104-.884c5.89377994.7609195 11.5313369 2.8761585 16.471 6.18.353946.2525734.5041112.7049218.37148 1.1190234-.1326312.4141015-.5176569.6950354-.95248.6949766z"/><path id="Shape" d="m1 49c-.51932902-.0014143-.95114453-.4001291-.99388439-.9176984-.04273986-.5175692.31782215-.981717.82988439-1.0683016 4.08773451-.6050162 8.24226549-.6050162 12.33 0 .5316488.1036743.8841036.6117949.7949669 1.1460733s-.5874563.9004595-1.1239669.8259267c-3.87025223-.559007-7.80074777-.559007-11.671 0-.05481397.0095391-.11036263.014224-.166.014z"/><path id="Shape" d="m5 56c-.4043959-.0000863-.76893405-.2437275-.92367798-.6173454-.15474393-.373618-.06922994-.8036603.21667798-1.0896546 3.206-3.206 11.243-4.243 11.583-4.285.5412109-.0564761 1.0282427.3301583 1.0960041.8700723.0677614.5399141-.3086222 1.0349106-.8470041 1.1139277-.077.01-7.7.994-10.418 3.715-.18749273.1875494-.44180519.2929434-.707.293z"/><path id="Shape" d="m33 47c-.4350076.0004942-.8204337-.2802889-.9533283-.6945s.0172316-.8668196.3713283-1.1195c4.9396631-3.3038415 10.5772201-5.4190805 16.471-6.18.548971-.0607513 1.0432487.335029 1.104.884s-.335029 1.0432487-.884 1.104c-5.5500198.7400233-10.8597095 2.730003-15.529 5.82-.1692884.1208032-.372029.18582-.58.186z"/><path id="Shape" d="m49 49c-.0556374.000224-.111186-.0044609-.166-.014-3.8702473-.5590762-7.8007527-.5590762-11.671 0-.5365106.0745328-1.0348302-.2916483-1.1239669-.8259267s.2633181-1.042399.7949669-1.1460733c4.0876863-.6056705 8.2423137-.6056705 12.33 0 .5120622.0865846.8726242.5507324.8298844 1.0683016-.0427399.5175693-.4745554.9162841-.9938844.9176984z"/><path id="Shape" d="m45 56c-.2651948-.0000566-.5195073-.1054506-.707-.293-2.721-2.721-10.341-3.7-10.418-3.715-.5383819-.0790171-.9147655-.5740136-.8470041-1.1139277.0677614-.539914.5547932-.9265484 1.0960041-.8700723.34.042 8.377 1.079 11.583 4.285.2859079.2859943.3714219.7160366.216678 1.0896546-.1547439.3736179-.5192821.6172591-.923678.6173454z"/></g><path id="Shape" d="m28.9 51.553c-.1184679-.2374485-.3264554-.4180742-.5781614-.5021012-.251706-.0840271-.5264889-.0645647-.7638386.0541012-.2145677.0914994-.4447765.1407328-.678.145-.3707811.0010059-.7107802-.2060845-.88-.536v-2.714h-2v2.721c-.3237952.5335498-1.0178645.7051677-1.553.384-.4942948-.2468713-1.0951287-.0462948-1.342.448-.2468713.4942949-.0462948 1.0951287.448 1.342 1.1102294.5721931 2.4501419.4575211 3.447-.295.5374806.4333863 1.2096327.6651019 1.9.655.5363589-.0003953 1.06564-.1224582 1.548-.357.2389348-.1177449.421019-.3259515.5058722-.5784463.0848533-.2524948.0654625-.5284089-.0538722-.7665537z" fill="#95a5a5"/><path id="Shape" d="m25 49c-1.6583228-.1027161-3.1391903-1.0733592-3.895-2.553-.2485281-.4934664-.0499664-1.0949718.4435-1.3435.4934664-.2485281 1.0949719-.0499664 1.3435.4435.416959.8050647 1.2072591 1.349802 2.108 1.453.9007409-.103198 1.691041-.6479353 2.108-1.453.1607695-.3192168.4796268-.5284158.8364614-.5487937.3568347-.0203779.6974349.1511611.8935.45s.2178081.6795769.0570386.9987937c-.7558097 1.4796408-2.2366772 2.4502839-3.895 2.553z" fill="#fb7b76"/><circle id="Oval" cx="14" cy="37" fill="#547580" r="1"/><circle id="Oval" cx="36" cy="37" fill="#547580" r="1"/></g></g></svg>