<svg id="Capa_1" enable-background="new 0 0 512 512" height="512" viewBox="0 0 512 512" width="512" xmlns="http://www.w3.org/2000/svg"><g><path d="m431.292 0c12.648 0 22.901 10.253 22.901 22.901v175.292l-115.612-107.354 75.766-83.342c4.34-4.775 10.493-7.497 16.945-7.497z" fill="#c8c5c9"/><path d="m80.708 0c-12.648 0-22.902 10.253-22.902 22.901v175.292l115.613-107.354-75.766-83.343c-4.34-4.774-10.493-7.496-16.945-7.496z" fill="#c8c5c9"/><path d="m478.968 289.032c0 56.312-20.876 107.749-55.311 146.993-40.866 46.574-100.828 71.725-167.657 71.725-123.142 0-218.667-95.576-218.667-218.718 0-66.825 25.096-126.783 71.664-167.648 39.245-34.44 90.686-55.319 147.003-55.319 123.142 0 222.968 99.826 222.968 222.967z" fill="#b6b1b7"/><path d="m222.968 396.387v33.032c0 18.243 14.789 33.032 33.032 33.032s33.032-14.789 33.032-33.032v-33.032z" fill="#e5646e"/><path d="m247.742 396.387v33.032c0 4.56 3.694 8.258 8.258 8.258s8.258-3.698 8.258-8.258v-33.032z" fill="#db4655"/><path d="m276.645 491.355c-123.142 0-222.968-99.826-222.968-222.968 0-56.316 20.88-107.759 55.319-147.004-46.569 40.865-75.964 100.823-75.964 167.649 0 123.142 99.826 222.968 222.968 222.968 66.826 0 126.792-29.405 167.657-75.974-39.245 34.439-90.696 55.329-147.012 55.329z" fill="#9b959d"/><path d="m181.677 371.613h-165.161c-4.565 0-8.258-3.698-8.258-8.258s3.694-8.258 8.258-8.258h165.161c4.565 0 8.258 3.698 8.258 8.258s-3.693 8.258-8.258 8.258z" fill="#dad8db"/><path d="m57.798 437.681c-3.645 0-6.984-2.44-7.968-6.133-1.177-4.407 1.444-8.931 5.847-10.109l123.871-33.032c4.403-1.165 8.935 1.444 10.105 5.851 1.177 4.407-1.444 8.931-5.847 10.109l-123.871 33.032c-.717.19-1.427.282-2.137.282z" fill="#dad8db"/><circle cx="165.161" cy="272.516" fill="#4b3f4e" r="33.032"/><circle cx="173.419" cy="264.258" fill="#fff" r="12.387"/><path d="m330.323 371.613h165.161c4.565 0 8.258-3.698 8.258-8.258s-3.694-8.258-8.258-8.258h-165.161c-4.565 0-8.258 3.698-8.258 8.258s3.693 8.258 8.258 8.258z" fill="#dad8db"/><path d="m454.202 437.681c3.645 0 6.984-2.44 7.968-6.133 1.177-4.407-1.444-8.931-5.847-10.109l-123.871-33.032c-4.403-1.165-8.935 1.444-10.105 5.851-1.177 4.407 1.444 8.931 5.847 10.109l123.871 33.032c.717.19 1.427.282 2.137.282z" fill="#dad8db"/><circle cx="346.839" cy="272.516" fill="#4b3f4e" r="33.032"/><circle cx="355.097" cy="264.258" fill="#fff" r="12.387"/><path d="m297.29 338.581h-82.58c-22.803 0-41.288 18.484-41.29 41.287-.002 22.324 18.97 41.295 41.294 41.294 11.441-.001 21.794-4.655 29.272-12.172 6.782-6.819 17.248-6.819 24.03 0 7.477 7.518 17.831 12.171 29.272 12.172 22.324.002 41.295-18.97 41.294-41.294-.003-22.803-18.489-41.287-41.292-41.287z" fill="#c8c5c9"/><path d="m224.037 343.381 18.523 25.933c6.587 9.222 20.292 9.222 26.879 0l18.523-25.933c3.904-5.466-.003-13.058-6.72-13.058h-50.487c-6.715 0-10.622 7.592-6.718 13.058z" fill="#4b3f4e"/></g></svg>