<svg id="Color" height="512" viewBox="0 0 24 24" width="512" xmlns="http://www.w3.org/2000/svg"><path d="m14.5 18h-14c-.178 0-.343-.095-.433-.249-.089-.154-.09-.344-.001-.499 2.063-3.611 3.025-7.077 3.025-10.907v-2.754c0-1.98 1.611-3.591 3.591-3.591h3.091c1.124 0 2.198.537 2.873 1.436l.463.619c.487.649 1.262 1.036 2.073 1.036h.773c1.127 0 2.045.917 2.045 2.045v.59c0 .78-.434 1.481-1.131 1.83l-4.056 2.028c-.482.241-.703.823-.503 1.324l2.651 6.401c.064.154.046.331-.046.469s-.248.222-.415.222z" fill="#cfd8dc"/><path d="m6.68 10c-.491 0-.939-.287-1.144-.731l-2.446-5.179v-.5c0-1.98 1.611-3.59 3.59-3.59h2.078l-.81 8.845c-.05.645-.607 1.155-1.268 1.155z" fill="#90a4ae"/><path d="m9 0h-.242l-.81 8.845c-.05.645-.607 1.155-1.268 1.155-.491 0-.939-.287-1.144-.731l-2.445-5.177v2.253c0 3.83-.961 7.295-3.025 10.907-.088.155-.088.345.001.499.09.154.255.249.433.249h8.5z" fill="#b4bcc0"/><path d="m8.758 0h-2.078c-1.979 0-3.59 1.61-3.59 3.59v.5l.001.002 2.445 5.177c.205.444.653.731 1.144.731.661 0 1.218-.51 1.268-1.155z" fill="#7d8f97"/><path d="m17.053 23.852c-.62-.461-6.053-4.601-6.053-8.114 0-2.061 1.683-3.738 3.75-3.738 1.063 0 2.054.446 2.75 1.194.696-.748 1.687-1.194 2.75-1.194 2.067 0 3.75 1.677 3.75 3.738 0 3.512-5.433 7.653-6.053 8.114-.265.197-.629.197-.894 0z" fill="#00bcd4"/><path d="m14.75 12c-2.067 0-3.75 1.677-3.75 3.738 0 3.512 5.433 7.653 6.053 8.114.133.099.29.148.447.148v-10.806c-.696-.748-1.687-1.194-2.75-1.194z" fill="#00a4b9"/></svg>