<svg id="Capa_1" enable-background="new 0 0 512 512" height="512" viewBox="0 0 512 512" width="512" xmlns="http://www.w3.org/2000/svg"><g><g><path d="m463.5 207.5c0-9.75-3.806-19.025-10.434-25.944 4.611-8.398 5.887-18.342 3.363-27.761-2.523-9.418-8.601-17.392-16.794-22.36 2.281-9.306.939-19.241-3.936-27.685s-12.809-14.573-22.008-17.251c-.206-9.579-4.072-18.828-10.968-25.724-6.895-6.894-16.145-10.761-25.724-10.967-2.678-9.2-8.808-17.134-17.251-22.008-8.444-4.875-18.379-6.217-27.686-3.936-4.968-8.193-12.941-14.27-22.359-16.793-9.417-2.523-19.362-1.248-27.761 3.364-6.917-6.629-16.192-10.435-25.942-10.435s-19.025 3.806-25.944 10.434c-8.398-4.611-18.339-5.886-27.761-3.364-9.418 2.523-17.392 8.6-22.359 16.793-9.303-2.281-19.24-.94-27.686 3.936-8.443 4.875-14.573 12.809-17.251 22.008-9.578.206-18.83 4.073-25.725 10.967-6.894 6.896-10.761 16.146-10.967 25.725-9.199 2.678-17.133 8.808-22.008 17.251s-6.217 18.379-3.936 27.685c-8.193 4.968-14.271 12.942-16.794 22.361-2.523 9.418-1.248 19.362 3.363 27.76-6.627 6.919-10.432 16.194-10.432 25.944s3.806 19.025 10.434 25.944c-4.611 8.398-5.887 18.342-3.363 27.761 2.523 9.418 8.601 17.392 16.794 22.359-2.281 9.306-.939 19.242 3.936 27.686s12.809 14.573 22.008 17.251c.205 9.579 4.072 18.829 10.968 25.724 1.932 1.932 4.054 3.617 6.312 5.06l-37.382 90.249c-2.475 5.974-1.466 12.791 2.634 17.791 4.1 5.001 10.588 7.328 16.93 6.073l45.871-9.074c.997-.195 1.998.221 2.562 1.061l26.019 38.852c3.273 4.888 8.726 7.763 14.527 7.763.576 0 1.156-.028 1.737-.086 6.435-.637 11.969-4.744 14.443-10.718l37.174-89.746c4.908 2.302 10.323 3.55 15.896 3.55s10.987-1.248 15.898-3.551l37.174 89.746c2.475 5.974 8.009 10.081 14.443 10.718.581.058 1.161.086 1.737.086 5.802 0 11.255-2.875 14.527-7.763l26.019-38.852c.563-.841 1.563-1.257 2.563-1.061l45.87 9.074c6.341 1.256 12.83-1.072 16.93-6.073 4.1-5 5.108-11.817 2.634-17.791l-37.382-90.249c2.258-1.443 4.38-3.128 6.313-5.06 6.895-6.895 10.762-16.145 10.967-25.724 9.199-2.678 17.133-8.807 22.008-17.251s6.217-18.379 3.936-27.686c8.193-4.967 14.271-12.941 16.794-22.36 2.523-9.418 1.248-19.362-3.363-27.76 6.626-6.918 10.432-16.193 10.432-25.943zm-274.43 287.956c-.499 1.204-1.508 1.476-2.064 1.531-.556.052-1.599-.014-2.323-1.097l-26.019-38.852c-3.943-5.889-10.986-8.805-17.936-7.429l-45.87 9.074c-1.277.255-2.064-.435-2.42-.868-.354-.433-.874-1.337-.376-2.542l37.525-90.593c1.783.299 3.591.472 5.412.511 2.678 9.2 8.808 17.134 17.251 22.008 8.444 4.875 18.379 6.217 27.686 3.936 4.968 8.193 12.941 14.27 22.359 16.793 7.914 2.12 16.192 1.548 23.617-1.419zm230.867-40.182c.498 1.204-.021 2.109-.376 2.542s-1.136 1.121-2.42.868l-45.869-9.074c-6.954-1.375-13.993 1.541-17.937 7.429l-26.019 38.852c-.725 1.083-1.768 1.149-2.323 1.097-.557-.055-1.565-.328-2.064-1.531l-36.842-88.945c7.426 2.967 15.705 3.538 23.617 1.419 9.418-2.523 17.392-8.601 22.359-16.793 9.305 2.279 19.242.938 27.686-3.936s14.573-12.809 17.251-22.008c1.821-.039 3.629-.212 5.412-.511zm18.893-229.296c-1.732 1.206-2.876 3.085-3.151 5.177s.343 4.203 1.704 5.816c4.758 5.638 6.462 13.247 4.559 20.352-1.904 7.105-7.185 12.842-14.124 15.346-1.985.716-3.576 2.235-4.384 4.185-.808 1.949-.757 4.149.141 6.059 3.137 6.678 2.813 14.468-.864 20.838s-10.263 10.545-17.614 11.167c-2.103.178-4.033 1.233-5.317 2.908-1.284 1.674-1.805 3.812-1.432 5.889 1.301 7.262-1.027 14.703-6.228 19.904-5.202 5.201-12.641 7.531-19.905 6.228-2.08-.374-4.215.148-5.889 1.432s-2.729 3.215-2.908 5.317c-.622 7.352-4.797 13.937-11.167 17.615-6.37 3.677-14.16 4.001-20.838.864-1.909-.896-4.108-.947-6.059-.141-1.949.808-3.469 2.399-4.185 4.383-2.504 6.94-8.241 12.22-15.347 14.124-7.104 1.905-14.713.2-20.352-4.558-1.613-1.361-3.721-1.981-5.816-1.704-2.092.276-3.971 1.419-5.176 3.151-4.215 6.055-11.123 9.67-18.478 9.67s-14.264-3.615-18.479-9.67c-1.205-1.732-3.084-2.875-5.176-3.151-.327-.043-.654-.064-.979-.064-1.76 0-3.476.62-4.837 1.768-5.64 4.758-13.249 6.462-20.352 4.558-7.105-1.903-12.843-7.183-15.347-14.124-.716-1.984-2.235-3.576-4.185-4.383s-4.148-.756-6.059.141c-6.681 3.136-14.469 2.813-20.838-.864-6.37-3.678-10.545-10.263-11.167-17.615-.179-2.102-1.234-4.033-2.908-5.317-1.675-1.286-3.812-1.806-5.889-1.432-7.263 1.302-14.704-1.027-19.904-6.228-5.201-5.202-7.529-12.643-6.229-19.904.373-2.077-.147-4.215-1.432-5.889-1.284-1.674-3.215-2.73-5.317-2.908-7.352-.623-13.937-4.797-17.614-11.167s-4.001-14.16-.864-20.838c.897-1.91.948-4.109.141-6.059-.808-1.95-2.398-3.469-4.384-4.185-6.939-2.503-12.22-8.24-14.124-15.345-1.903-7.106-.199-14.714 4.559-20.353 1.361-1.613 1.979-3.724 1.704-5.816s-1.419-3.971-3.151-5.177c-6.055-4.214-9.67-11.122-9.67-18.478s3.615-14.264 9.67-18.479c1.732-1.206 2.876-3.085 3.151-5.177s-.343-4.204-1.704-5.816c-4.758-5.637-6.462-13.246-4.559-20.351 1.904-7.105 7.185-12.843 14.124-15.347 1.985-.716 3.577-2.235 4.384-4.185.808-1.95.757-4.149-.141-6.059-3.137-6.677-2.813-14.467.864-20.837s10.263-10.545 17.614-11.168c2.103-.178 4.033-1.233 5.317-2.908s1.805-3.812 1.432-5.889c-1.301-7.262 1.027-14.702 6.228-19.904 5.203-5.201 12.642-7.529 19.905-6.228 2.077.372 4.214-.148 5.889-1.432 1.674-1.284 2.729-3.215 2.908-5.317.622-7.352 4.797-13.937 11.167-17.615 6.371-3.677 14.161-4 20.838-.865 1.91.898 4.109.948 6.059.141 1.949-.808 3.469-2.399 4.185-4.384 2.504-6.94 8.241-12.22 15.347-14.123 7.104-1.903 14.713-.2 20.352 4.558 1.612 1.36 3.719 1.979 5.816 1.704 2.092-.276 3.971-1.419 5.176-3.151 4.215-6.053 11.123-9.668 18.479-9.668s14.264 3.615 18.479 9.67c1.205 1.732 3.084 2.875 5.176 3.151 2.096.275 4.203-.344 5.816-1.704 5.639-4.758 13.246-6.463 20.352-4.558 7.105 1.903 12.843 7.183 15.347 14.123.716 1.985 2.235 3.576 4.185 4.384 1.95.807 4.15.756 6.059-.141 6.679-3.137 14.467-2.813 20.838.865 6.37 3.678 10.545 10.263 11.167 17.615.179 2.102 1.234 4.033 2.908 5.317s3.809 1.804 5.889 1.432c7.262-1.3 14.704 1.027 19.904 6.228 5.201 5.202 7.529 12.642 6.229 19.904-.373 2.077.147 4.214 1.432 5.889s3.215 2.729 5.317 2.908c7.352.623 13.937 4.798 17.614 11.168s4.001 14.16.864 20.837c-.897 1.91-.948 4.109-.141 6.059.807 1.949 2.398 3.469 4.384 4.185 6.939 2.504 12.22 8.241 14.124 15.346 1.903 7.106.199 14.714-4.559 20.352-1.361 1.613-1.979 3.724-1.704 5.816s1.419 3.971 3.151 5.177c6.055 4.214 9.67 11.123 9.67 18.479s-3.616 14.262-9.671 18.476z"/><path d="m374.462 99.69c-3.189 2.643-3.632 7.371-.988 10.561 22.587 27.252 35.026 61.79 35.026 97.249 0 84.089-68.411 152.5-152.5 152.5s-152.5-68.411-152.5-152.5 68.411-152.5 152.5-152.5c35.46 0 69.997 12.439 97.249 35.026 3.19 2.643 7.917 2.201 10.561-.988s2.2-7.917-.988-10.561c-29.938-24.812-67.875-38.477-106.822-38.477-92.36 0-167.5 75.14-167.5 167.5s75.14 167.5 167.5 167.5 167.5-75.14 167.5-167.5c0-38.947-13.665-76.883-38.478-106.821-2.644-3.19-7.373-3.631-10.56-.989z"/><path d="m256 80c-64.155 0-118.543 47.964-126.509 111.568-.516 4.11 2.399 7.859 6.51 8.374 4.101.517 7.859-2.399 8.373-6.51 7.029-56.116 55.017-98.432 111.626-98.432 62.032 0 112.5 50.467 112.5 112.5s-50.468 112.5-112.5 112.5c-56.079 0-104.01-41.872-111.491-97.396-.553-4.105-4.343-6.984-8.434-6.431-4.105.553-6.985 4.329-6.432 8.434 8.479 62.934 62.801 110.393 126.357 110.393 70.304 0 127.5-57.196 127.5-127.5s-57.197-127.5-127.5-127.5z"/><path d="m213.675 242.912c-9.36 4.698-15.175 14.12-15.175 24.588 0 15.164 12.337 27.5 27.5 27.5h60c15.163 0 27.5-12.336 27.5-27.5 0-10.468-5.814-19.89-15.174-24.587-3.181-1.597-5.729-4.615-7.175-8.497-5.436-14.604-19.563-24.416-35.151-24.416s-29.715 9.812-35.151 24.415c-1.447 3.883-3.995 6.9-7.174 8.497zm21.23-3.263c3.263-8.762 11.74-14.649 21.095-14.649s17.832 5.887 21.095 14.649c2.772 7.446 7.923 13.365 14.501 16.668h.001c4.258 2.137 6.903 6.422 6.903 11.182 0 6.893-5.607 12.5-12.5 12.5h-60c-6.893 0-12.5-5.607-12.5-12.5 0-4.76 2.646-9.044 6.904-11.182 6.578-3.302 11.729-9.222 14.501-16.668z"/><path d="m201 155c-15.421 0-27.5 16.472-27.5 37.5s12.079 37.5 27.5 37.5 27.5-16.472 27.5-37.5-12.079-37.5-27.5-37.5zm0 60c-5.912 0-12.5-9.24-12.5-22.5s6.588-22.5 12.5-22.5 12.5 9.24 12.5 22.5-6.588 22.5-12.5 22.5z"/><path d="m311 230c15.421 0 27.5-16.472 27.5-37.5s-12.079-37.5-27.5-37.5-27.5 16.472-27.5 37.5 12.079 37.5 27.5 37.5zm0-60c5.912 0 12.5 9.24 12.5 22.5s-6.588 22.5-12.5 22.5-12.5-9.24-12.5-22.5 6.588-22.5 12.5-22.5z"/><path d="m256 120c-15.421 0-27.5 16.472-27.5 37.5s12.079 37.5 27.5 37.5 27.5-16.472 27.5-37.5-12.079-37.5-27.5-37.5zm0 60c-5.912 0-12.5-9.24-12.5-22.5s6.588-22.5 12.5-22.5 12.5 9.24 12.5 22.5-6.588 22.5-12.5 22.5z"/></g></g></svg>