<svg id="_x33_0_Running_wheel" enable-background="new 0 0 64 64" height="512" viewBox="0 0 64 64" width="512" xmlns="http://www.w3.org/2000/svg"><circle cx="20" cy="30" r="1"/><circle cx="12" cy="30" r="1"/><path d="m63 42h-2v-5c0-5-1.422-9.672-3.877-13.64.387-3.294-.447-10.401-.456-10.481-.58-4.775-2.834-11.879-6.667-11.879-4.25 0-10.427 7.033-11.771 10.208-1.059-.132-2.135-.208-3.229-.208-1.083 0-2.161.075-3.226.215-1.337-3.171-7.52-10.215-11.774-10.215-3.833 0-6.087 7.104-6.667 11.88-.009.079-.853 7.28-.448 10.545-.207.056-.413.11-.615.177-1.744-2.504-3.353-3.341-4.795-2.452-1.286.793-1.7 2.712-1.818 3.5-.216 1.435-.06 2.763.393 3.651-.823 1.218-1.42 2.597-1.751 4.076-.693-.12-1.406-.241-2.134-.363l-.328 1.973c.75.125 1.484.25 2.197.373-.013.213-.034.424-.034.64 0 .711.063 1.394.16 2.059l-2.531 1.012.742 1.857 2.234-.893c.461 1.473 1.173 2.789 2.106 3.904-.524 2.36-1.118 7.528 2.314 11.669.252 4.897 3.523 8.392 7.975 8.392h36c4.636 0 8-3.785 8-9v-6h2zm-13-39c1.807 0 4.038 4.824 4.681 10.12.266 2.192.506 5.234.541 7.562-.957-1.183-2.016-2.279-3.162-3.278.113-3.07-1.172-11.367-2.514-12.242-.179-.116-.556-.283-1.074-.089-1.295.487-5.026 4.653-6.159 6.981-.672-.197-1.352-.374-2.045-.517 1.429-2.869 6.787-8.537 9.732-8.537zm-5.791 9.69c.812-1.539 3.143-4.182 4.366-5.28.55 1.747 1.336 5.871 1.514 8.436-1.803-1.29-3.776-2.356-5.88-3.156zm14.791 24.31v5h-4v-2c0-11.028-8.972-20-20-20-3.147 0-6.348.849-9.335 2.461-.271-.519-.637-1.002-1.14-1.312-1.443-.889-3.053-.052-4.796 2.452-1.174-.386-2.426-.601-3.729-.601-.064 0-.126.009-.189.01 4.211-6.128 11.552-10.01 19.189-10.01 13.233 0 24 10.767 24 24zm-18.599 5c-1.439-1.41-2.83-2.573-4.141-3.535.391-.208.715-.446 1.007-.665.62-.464 1.067-.8 2.068-.8 1 0 1.447.336 2.067.8.713.535 1.6 1.2 3.267 1.2 1.515 0 2.312-.3 3.018-.563.37-.139.712-.265 1.168-.346.085.625.145 1.26.145 1.909v2zm-31.571.3c-.04-.04-.079-.081-.119-.122l.258.064c.924-3.691 2.25-5.4 4.762-6.125.324.314.733.551 1.198.698-.172 1.172-.778 3.185-2.929 3.185v2c1.994 0 3.246-.998 4-2.253.754 1.255 2.006 2.253 4 2.253v-2c-2.134 0-2.748-2.013-2.925-3.185.464-.148.872-.384 1.193-.697 2.472.713 3.794 2.39 4.715 5.961-1.818 1.794-4.296 2.921-6.983 2.921-3.116 0-5.448-1.027-7.078-2.606.005-.015.016-.047.018-.055zm8.12-7.674c-.126.181-.476.374-.95.374s-.825-.194-.956-.38c-.044-.061-.044-.105-.044-.12 0-.177.38-.5 1-.5s1 .323 1 .5c0 .014 0 .058-.05.126zm7.555 5.53c-.366-1.092-.797-2.016-1.306-2.799l2.225.89c-.238.67-.547 1.309-.919 1.909zm-1.284-4.945c.832-.154 1.762-.324 2.764-.503.003.098.015.193.015.292 0 .435-.04.862-.097 1.284zm6.615-3.197c-.728.121-1.441.243-2.134.363-.262-1.168-.693-2.271-1.269-3.283 2.485-2.021 5.424-3.094 8.567-3.094 6.377 0 11.761 4.29 13.445 10.133-.6.112-1.049.277-1.461.431-.625.234-1.164.436-2.315.436-1 0-1.447-.336-2.067-.8-.713-.535-1.6-1.2-3.267-1.2s-2.555.665-3.268 1.2c-.6.449-1.048.771-1.982.792-2.527-1.561-4.576-2.335-5.772-2.692.605-.104 1.221-.209 1.851-.314zm-5.422-5.556c-.826-.814-1.77-1.508-2.802-2.057 1.086-1.468 1.714-1.642 1.862-1.55.307.189.716.925.892 2.095.087.575.09 1.087.048 1.512zm10.586-2.458c-3.107 0-6.033.911-8.602 2.635.059-.615.051-1.286-.055-1.986-.011-.071-.027-.16-.043-.247 2.786-1.568 5.774-2.402 8.7-2.402 9.925 0 18 8.075 18 18v2h-2v-2c0-8.822-7.178-16-16-16zm-15.097-8.004c.155-2.551.96-6.802 1.522-8.586 1.241 1.115 3.619 3.816 4.397 5.344-2.11.822-4.104 1.913-5.919 3.242zm.097-12.996c2.957 0 8.345 5.712 9.749 8.57-.688.148-1.366.329-2.038.533-1.104-2.318-4.879-6.539-6.183-7.03-.519-.196-.896-.027-1.074.089-1.37.893-2.679 9.514-2.505 12.422-1.165 1.046-2.231 2.197-3.174 3.445.015-2.367.265-5.605.544-7.909.643-5.296 2.874-10.12 4.681-10.12zm-12.366 21.946c.176-1.17.585-1.906.892-2.095.147-.092.775.082 1.862 1.55-1.033.549-1.976 1.243-2.802 2.057-.042-.425-.039-.937.048-1.512zm8.366.054c4.729 0 8.694 3.304 9.728 7.723-3.529.629-6.193 1.152-6.788 1.27-.274-1.151-1.467-1.993-2.94-1.993s-2.666.842-2.94 1.992c-.595-.118-3.259-.641-6.788-1.27 1.034-4.418 4.999-7.722 9.728-7.722zm-10 10c0-.099.012-.194.015-.292 1.002.179 1.932.349 2.764.503l-2.7 1.08c-.047-.429-.079-.859-.079-1.291zm2.8 2.357c-.553.85-1.011 1.874-1.397 3.091-.393-.68-.697-1.408-.922-2.163zm-.382 7.214c2.011 1.544 4.604 2.429 7.582 2.429 5.113 0 9.589-3.401 11.276-8.012l2.353.941.742-1.857-2.567-1.027c.046-.253.092-.507.121-.764 1.731.551 5.347 2.05 9.534 5.72h-8.459c-2.271 0-2.62 2.998-2.988 6.172-.286 2.459-.677 5.827-2.012 5.827-1.504 0-1.997-3.369-2-5.001l-.003-1.865-1.552 1.034c-2.586 1.723-6.168.87-6.203.862l-1.616-.404 1.389 5.556c.032.387-.27.756-.573.941-.12.072-.537.294-.862.062-4.452-3.161-4.569-7.859-4.162-10.614zm50.582 9.429c0 4.056-2.523 7-6 7h-36c-2.595 0-4.657-1.641-5.537-4.16.434.296.935.448 1.453.448.525 0 1.066-.152 1.566-.458 1.079-.658 1.671-1.824 1.508-2.972l-.657-2.65c1.236.101 3.031.069 4.767-.618.243 2.089 1.074 5.41 3.9 5.41 3.115 0 3.584-4.036 3.998-7.597.015-.126.03-.262.047-.403h30.955zm2-8h-32.677c.171-.99.393-1.854.677-2h32z"/></svg>