<svg id="Capa_1" enable-background="new 0 0 512 512" height="512" viewBox="0 0 512 512" width="512" xmlns="http://www.w3.org/2000/svg"><g><path d="m512 256c0 67.158-25.86 128.276-68.166 173.939-1.087 1.173-6.534-.348-7.643.805-19.204 19.968-34.823 34.315-59.617 47.234-1.898.989-6.256 7.151-8.181 8.094-23.145 11.328-48.252 19.266-74.673 23.168-3.694.546-6.61-6.967-10.354-6.581-8.731.9-45.482.842-54.733-.171-3.201-.35-7.189 7.219-10.354 6.752-26.421-3.902-51.528-11.84-74.673-23.168-2.662-1.303-5.299-18.83-7.908-20.221-23.128-12.335-41.552-20.778-59.763-39.319-1.754-1.786-6.069 5.244-7.77 3.408-42.305-45.664-68.165-106.782-68.165-173.94 0-141.385 114.615-256 256-256s256 114.615 256 256z" fill="#1ab975"/><path d="m468.99 207.734c0 99.132-80.362 179.494-179.494 179.494s-179.494-80.362-179.494-179.494 80.362-179.494 179.494-179.494 179.494 80.362 179.494 179.494z" fill="#1ed688"/><path d="m143.607 257.151v228.921c-12.424-6.081-24.283-13.138-35.477-21.072-.971-.688-.637-3.682-1.598-4.383-3.918-2.86-4.51-4.332-8.255-7.404-1.608-1.319-7.741-1.855-9.316-3.213-7.302-6.293-14.246-12.992-20.795-20.061v-9.939c3.214-2.559 3.214-7.441 0-10v-10l2.377-3.279c1.542-2.128 1.667-4.971.316-7.225l-2.693-4.496v-25l2.377-3.279c1.542-2.128 1.667-4.971.316-7.225l-2.693-4.496v-20c2.722-2.372 3.017-6.496.661-9.232l-.661-.768v-10l2.377-3.279c1.542-2.128 1.667-4.971.316-7.225l-2.693-4.496v-32.849z" fill="#ffc14f"/><path d="m180.249 242.152-36.642 36.642v140.36c0 21.86-26.368 32.77-41.897 17.385-.153-.152-.307-.304-.459-.456-4.621-4.601-7.205-10.865-7.205-17.386v-89.808c0-16.16-6.899-31.369-18.452-42.668-.051-.05-.101-.1-.152-.15l-43.918-43.918c-7.365-7.365-7.365-19.307 0-26.672 6.55-6.55 16.718-7.275 24.069-2.176 0-.053-.001-.106-.001-.16v-12.13c0-10.206 7.925-18.901 18.124-19.289 5.145-.196 9.852 1.67 13.364 4.837.734-9.746 8.873-17.425 18.806-17.425 9.933 0 18.073 7.679 18.806 17.425 3.511-3.167 8.219-5.033 13.364-4.837 10.199.388 18.124 9.083 18.124 19.289v12.13c0 .054-.001.107-.001.16 7.351-5.099 17.52-4.374 24.069 2.176 7.366 7.364 7.366 19.306.001 26.671z" fill="#ffcd71"/><path d="m68.166 410h29.6c2.761 0 5 2.239 5 5 0 2.761-2.239 5-5 5h-29.6zm39.964 55h10.061c2.761 0 5-2.239 5-5v-5c0-2.761-2.239-5-5-5h-29.23c6.142 5.294 12.539 10.301 19.169 15zm-39.964-65h29.6c2.761 0 5-2.239 5-5v-5c0-2.761-2.239-5-5-5h-29.6zm0-40h29.6c2.761 0 5-2.239 5-5v-5c0-2.761-2.239-5-5-5h-29.6zm0-70v15h29.6c2.761 0 5-2.239 5-5v-5c0-2.761-2.239-5-5-5zm0 35h29.6c2.761 0 5-2.239 5-5 0-2.761-2.239-5-5-5h-29.6z" fill="#ff9f22"/><path d="m93.961 410h49.646v10h-49.646c-2.761 0-5-2.239-5-5s2.238-5 5-5zm16.04 47.5c0 4.142 3.358 7.5 7.5 7.5h26.106v-15h-26.106c-4.142 0-7.5 3.358-7.5 7.5zm-21.04-65c0 4.142 3.358 7.5 7.5 7.5h47.146v-15h-47.146c-4.143 0-7.5 3.358-7.5 7.5zm7.5-102.5c-4.142 0-7.5 3.358-7.5 7.5s3.358 7.5 7.5 7.5h47.146v-15zm-7.5 30c0 2.761 2.239 5 5 5h49.646v-10h-49.646c-2.762 0-5 2.239-5 5zm0 32.5c0 4.142 3.358 7.5 7.5 7.5h47.146v-15h-47.146c-4.143 0-7.5 3.358-7.5 7.5z" fill="#ffb52d"/><path d="m293.721 72.247v436.993c-12.31 1.818-24.906 2.76-37.721 2.76s-25.411-.942-37.72-2.76v-436.993z" fill="#9b5e34"/><path d="m330.015 73.363-36.295 36.295v281.52c0 13.034-10.917 23.427-23.933 22.749-.197-.01-.394-.021-.592-.031-12.08-.64-21.535-10.647-21.535-22.745v-223.104c0-19.27-8.12-37.49-21.924-50.935-.06-.059-.121-.118-.18-.178l-43.571-43.571c-7.16-7.16-7.808-18.806-1.016-26.315 6.509-7.196 17.132-8.156 24.739-2.88 0-.053-.001-.107-.001-.16v-12.574c0-10.416 8.444-18.86 18.86-18.86 4.857 0 9.284 1.836 12.627 4.851.733-9.746 8.873-17.425 18.806-17.425 9.933 0 18.073 7.679 18.806 17.425 3.511-3.167 8.219-5.033 13.364-4.837 10.199.388 18.124 9.083 18.124 19.289v12.13c0 .053-.001.107-.001.16 7.607-5.276 18.23-4.317 24.739 2.88 6.792 7.51 6.143 19.156-1.017 26.316z" fill="#b56d3c"/><path d="m228 92.5c0-6.903 5.596-12.5 12.5-12.5s12.5 5.597 12.5 12.5-5.596 12.5-12.5 12.5-12.5-5.597-12.5-12.5zm32 102.5c0-19.33-15.67-35-35-35-2.299 0-4.545.222-6.72.645v68.71c2.175.423 4.422.645 6.72.645 19.33 0 35-15.67 35-35zm5-45c8.284 0 15-6.716 15-15s-6.716-15-15-15-15 6.716-15 15 6.716 15 15 15zm-8.845 269.035c8.034-2.596 13.845-10.137 13.845-19.035 0-11.046-8.954-20-20-20s-20 8.954-20 20c0 .119.001.237.003.355-1.634-.233-3.304-.355-5.003-.355-2.299 0-4.545.222-6.72.645v68.71c2.175.423 4.422.645 6.72.645 19.33 0 35-15.67 35-35 0-5.751-1.387-11.178-3.845-15.965zm6.345 55.965c-6.904 0-12.5 5.597-12.5 12.5s5.596 12.5 12.5 12.5 12.5-5.597 12.5-12.5-5.596-12.5-12.5-12.5zm21.104-231c-22.424 0-40.602 18.178-40.602 40.602 0 16.759 10.153 31.145 24.644 37.345-.936 2.85-1.443 5.894-1.443 9.057 0 15.519 12.19 28.191 27.517 28.964v-114.697c-3.233-.83-6.623-1.271-10.116-1.271z" fill="#634539"/><path d="m443.834 221.151v208.789c-21.359 23.054-46.91 42.169-75.441 56.133v-264.922z" fill="#badfe4"/><path d="m480.129 206.499-36.295 36.295v142.203c0 7.16-3.449 13.899-9.292 18.037-.143.101-.287.203-.43.304-14.699 10.366-34.973-.05-34.973-18.036v-81.096c0-20.421-8.637-39.711-23.278-53.947-.064-.063-.128-.126-.192-.19l-43.918-43.918c-7.365-7.365-7.365-19.307 0-26.672 6.55-6.55 16.718-7.275 24.069-2.176 0-.053-.001-.106-.001-.16v-12.573c0-10.416 8.444-18.86 18.86-18.86 4.857 0 9.284 1.836 12.627 4.851.734-9.746 8.873-17.425 18.806-17.425s18.073 7.679 18.806 17.425c3.343-3.015 7.771-4.851 12.627-4.851 10.416 0 18.86 8.444 18.86 18.86v12.573c0 .054-.001.107-.001.16 7.607-5.276 18.23-4.317 24.739 2.88 6.794 7.51 6.146 19.156-1.014 26.316z" fill="#def4f8"/><path d="m141.886 249c0 8.284-6.716 15-15 15h-42c-8.284 0-15-6.716-15-15s6.716-15 15-15h5.854c2.059-5.826 7.615-10 14.146-10h2c6.531 0 12.087 4.174 14.146 10h5.854c8.285 0 15 6.716 15 15zm59.269-196.839c-3.905-3.905-10.237-3.905-14.142 0s-3.905 10.237 0 14.142l7.071 7.071c3.905 3.905 10.237 3.905 14.142 0s3.905-10.237 0-14.142zm-95.269 160.837c5.523 0 10-4.477 10-10v-10c0-5.522-4.477-10-10-10-5.523 0-10 4.478-10 10v10c0 5.523 4.478 10 10 10zm-54.845 10.396c-3.905-3.905-10.237-3.905-14.142 0s-3.905 10.237 0 14.142l7.071 7.071c3.905 3.905 10.237 3.905 14.142 0s3.905-10.237 0-14.142zm29.347-.905c5.335-1.429 8.5-6.913 7.071-12.248l-2.588-9.659c-1.429-5.334-6.913-8.5-12.247-7.071-5.335 1.429-8.5 6.913-7.071 12.248l2.588 9.659c1.429 5.334 6.913 8.5 12.247 7.071zm300.227-36c5.335-1.429 8.5-6.913 7.071-12.248l-2.588-9.659c-1.429-5.334-6.913-8.5-12.247-7.071-5.335 1.429-8.5 6.913-7.071 12.248l2.588 9.659c1.429 5.334 6.913 8.5 12.247 7.071zm-150.113-135.232c5.335-1.43 8.5-6.913 7.071-12.248l-2.588-9.659c-1.429-5.335-6.913-8.5-12.247-7.071-5.335 1.429-8.5 6.913-7.071 12.248l2.588 9.659c1.429 5.335 6.912 8.5 12.247 7.071zm196.612 146.743h-5.854c-2.059-5.826-7.615-10-14.146-10h-2c-6.531 0-12.087 4.174-14.146 10h-5.854c-8.284 0-15 6.716-15 15s6.716 15 15 15h42c8.284 0 15-6.716 15-15s-6.716-15-15-15zm-150.114-135.232h-5.854c-2.059-5.826-7.615-10-14.146-10h-2c-6.531 0-12.087 4.174-14.146 10h-5.854c-8.284 0-15 6.716-15 15 0 8.285 6.716 15 15 15h42c8.284 0 15-6.715 15-15s-6.716-15-15-15zm74.269 124.626c-3.905-3.905-10.237-3.905-14.142 0s-3.905 10.237 0 14.142l7.071 7.071c3.905 3.905 10.237 3.905 14.142 0s3.905-10.237 0-14.142z" fill="#fc7979"/><path d="m266 21.766v10c0 5.523-4.477 10-10 10s-10-4.477-10-10v-10c0-5.523 4.477-10 10-10s10 4.477 10 10zm23.263.513c-5.335-1.429-10.818 1.737-12.247 7.071l-2.588 9.659c-1.429 5.334 1.736 10.818 7.071 12.248 5.335 1.429 10.818-1.736 12.247-7.071l2.588-9.659c1.429-5.335-1.737-10.819-7.071-12.248zm-128.532 201.115-7.071 7.071c-3.905 3.905-3.905 10.237 0 14.142s10.237 3.905 14.142 0l7.071-7.071c3.905-3.905 3.905-10.237 0-14.142-3.905-3.906-10.236-3.906-14.142 0zm-21.582-29.883c-5.335-1.43-10.818 1.736-12.247 7.071l-2.588 9.659c-1.429 5.335 1.736 10.818 7.071 12.248s10.818-1.736 12.247-7.071l2.588-9.659c1.43-5.335-1.736-10.819-7.071-12.248zm335.952-6.117c-3.905-3.905-10.237-3.905-14.142 0l-7.071 7.071c-3.905 3.905-3.905 10.237 0 14.142s10.237 3.905 14.142 0l7.071-7.071c3.905-3.906 3.905-10.237 0-14.142zm-35.725-29.883c-5.335-1.43-10.818 1.736-12.247 7.071l-2.588 9.659c-1.429 5.335 1.736 10.818 7.071 12.248s10.818-1.736 12.247-7.071l2.588-9.659c1.43-5.335-1.736-10.819-7.071-12.248zm-33.262-10.513c-5.523 0-10 4.478-10 10v10c0 5.523 4.477 10 10 10s10-4.477 10-10v-10c0-5.522-4.478-10-10-10zm-95.269-94.837-7.071 7.071c-3.905 3.905-3.905 10.237 0 14.142s10.237 3.905 14.142 0l7.071-7.071c3.905-3.905 3.905-10.237 0-14.142s-10.237-3.905-14.142 0z" fill="#fd9a9a"/></g></svg>