<svg viewBox="1 -10 511.99998 511" xmlns="http://www.w3.org/2000/svg"><path d="m369.457031 129.628906c-2.007812 0-4.011719-.765625-5.542969-2.296875l-107.914062-107.914062-107.914062 107.914062c-3.0625 3.0625-8.023438 3.0625-11.082032 0-3.0625-3.058593-3.0625-8.019531 0-11.082031l113.453125-113.453125c3.0625-3.0625 8.023438-3.0625 11.085938 0l113.453125 113.453125c3.0625 3.0625 3.0625 8.023438 0 11.082031-1.527344 1.53125-3.535156 2.296875-5.539063 2.296875zm0 0" fill="#353c44"/><path d="m0 111.554688h512v379.277343h-512zm0 0" fill="#eaeaea"/><path d="m260.449219 453.417969s37.96875-187.902344 37.96875-225.277344c0-43.902344 43.902343-54.582031 43.902343-54.582031v54.582031c0-43.902344 43.902344-54.582031 43.902344-54.582031v54.582031l77.714844 70.597656s-3.625 43.492188-60.550781 67.726563v86.953125" fill="#edd464"/><path d="m388.074219 364.949219c4.496093 3.042969 10.257812 3.515625 15.308593 1.515625 26.910157-11.460938 41.898438-27.210938 50.238282-40.648438h.011718c9.296876-14.988281 10.300782-27.085937 10.300782-27.085937h-54.179688c-19.265625 0-35.753906 14.585937-37.28125 33.78125-1.0625 13.484375 5.378906 25.546875 15.601563 32.4375zm0 0" fill="#fff"/><g fill="#353c44"><path d="m426.546875 298.730469c0 12.894531 13.921875 24.289062 27.0625 27.085937h.011719c9.296875-14.988281 10.300781-27.085937 10.300781-27.085937zm0 0"/><path d="m393.980469 282.425781c-4.328125 0-7.835938-3.507812-7.835938-7.835937v-12.15625c0-4.328125 3.507813-7.835938 7.835938-7.835938s7.835937 3.507813 7.835937 7.835938v12.15625c0 4.328125-3.507812 7.835937-7.835937 7.835937zm0 0"/><path d="m364.394531 282.425781c-4.328125 0-7.835937-3.507812-7.835937-7.835937v-12.15625c0-4.328125 3.507812-7.835938 7.835937-7.835938s7.835938 3.507813 7.835938 7.835938v12.15625c0 4.328125-3.507813 7.835937-7.835938 7.835937zm0 0"/></g><path d="m313.496094 261.835938c0 14.902343-2.523438 29.222656-7.167969 42.546874-17.558594 50.28125-65.34375 86.390626-121.582031 86.519532v66.015625h-120.65625c14.480468-71.890625 44.660156-217.71875 46.820312-224.03125 7.789063-22.832031 24.625-41.996094 47.28125-52.453125l5.277344-2.433594v83.835938c0-17.476563 5.078125-34.164063 14.132812-48.320313 9.054688-14.140625 22.085938-25.75 37.953126-33.078125l5.277343-2.4375v83.835938zm0 0" fill="#b75129"/><path d="m313.496094 261.835938c0 14.90625-2.523438 29.21875-7.175782 42.542968l-.652343-.148437c-19.398438-4.351563-33.890625-21.675781-33.890625-42.386719v-.007812zm0 0" fill="#353c44"/><path d="m220.027344 316.691406c-4.328125 0-7.835938-3.507812-7.835938-7.835937v-12.15625c0-4.328125 3.507813-7.839844 7.835938-7.839844s7.835937 3.511719 7.835937 7.839844v12.15625c0 4.328125-3.507812 7.835937-7.835937 7.835937zm0 0" fill="#353c44"/><path d="m190.667969 316.691406c-4.328125 0-7.835938-3.507812-7.835938-7.835937v-12.15625c0-4.328125 3.507813-7.839844 7.835938-7.839844s7.835937 3.511719 7.835937 7.839844v12.15625c0 4.328125-3.507812 7.835937-7.835937 7.835937zm0 0" fill="#353c44"/></svg>