<?xml version="1.0" encoding="iso-8859-1"?>
<!-- Generator: Adobe Illustrator 19.0.0, SVG Export Plug-In . SVG Version: 6.00 Build 0)  -->
<svg version="1.1" id="Capa_1" xmlns="http://www.w3.org/2000/svg" xmlns:xlink="http://www.w3.org/1999/xlink" x="0px" y="0px"
	 viewBox="0 0 512 512" style="enable-background:new 0 0 512 512;" xml:space="preserve">
<path style="fill:#9C969E;" d="M363.355,221.585c-0.863,0-1.742-0.137-2.613-0.427c-4.323-1.444-6.661-6.121-5.218-10.448
	c9.048-27.149,35.177-44.81,36.282-45.548c3.782-2.544,8.911-1.496,11.435,2.282c2.532,3.786,1.516,8.911-2.266,11.452
	c-0.218,0.153-22.556,15.347-29.79,37.04C370.032,219.395,366.815,221.585,363.355,221.585z"/>
<path style="fill:#AEA8AF;" d="M430.796,271.645c-4.143-41.082-36.898-67.214-74.667-69.677
	c-31.656-2.065-157.935,19.613-157.935,19.613l-16.516,115.613c0,0,106.854-28.942,158.266-32.661
	c13.143,26.488,56.444,90.468,105.992,123.5l16.516-16.516C412.903,361.968,434.925,312.591,430.796,271.645z"/>
<g>
	<path style="fill:#9C969E;" d="M318.987,268.715c-50.751-4.727-96.553,2.623-129.079,10.865l-8.23,57.613
		c0,0,106.854-28.942,158.266-32.661c-1.97-6.972-2.926-12.687-3.286-17.294C335.903,277.576,328.637,269.614,318.987,268.715z"/>
	<rect x="74.32" y="337.19" style="fill:#9C969E;" width="33.03" height="90.84"/>
</g>
<path style="fill:#AEA8AF;" d="M49.548,81.193c-0.688,5.505-4.959,15.14-9.432,18.581c-6.667,5.129-25.507,14.65-35.526,19.576
	c-3.708,1.823-5.468,6.088-4.161,10.007l3.574,10.72c1.591,4.775,5.225,8.581,9.961,10.283c12.06,4.334,43.843,11.092,77.391,3.092
	l14.194-83.097L49.548,81.193z"/>
<g>
	<path style="fill:#EDEBED;" d="M247.742,253.322c0,60.003-55.054,108.645-126.452,108.645
		c-62.426,0-113.032-48.642-113.032-108.645S58.864,144.677,121.29,144.677C197.505,144.677,247.742,193.319,247.742,253.322z"/>
	<path style="fill:#EDEBED;" d="M490.177,101.792c15.32,22.884-2.053,61.534-30.478,80.562
		c-28.424,19.029-57.136,11.232-72.456-11.653c-15.32-22.884-11.447-52.19,16.978-71.219
		C432.645,80.455,474.857,78.908,490.177,101.792z"/>
</g>
<path style="fill:#4B3F4E;" d="M66.145,114.226c-4.56,0-8.298-3.698-8.298-8.258s3.657-8.258,8.218-8.258h0.081
	c4.56,0,8.258,3.698,8.258,8.258S70.706,114.226,66.145,114.226z"/>
<path style="fill:#9C969E;" d="M60.774,137.452c-9.161-3.871-21.161,1.677-56.772,2.626l0,0c1.591,4.775,5.225,8.581,9.961,10.283
	c8.49,3.051,26.835,7.2,48.609,6.659C73.435,147.015,68.213,140.595,60.774,137.452z"/>
<path style="fill:#4B3F4E;" d="M0.429,129.357l1.057,3.171c0.362,0.037,0.676,0.208,1.048,0.208c5.764,0,10.435-4.593,10.435-10.258
	c0-2.355-0.945-4.422-2.302-6.153c-2.205,1.108-4.307,2.155-6.078,3.025C0.883,121.173-0.878,125.438,0.429,129.357z"/>
<path style="fill:#DBD9DC;" d="M121.29,144.677c-4.398,0-8.718,0.301-12.985,0.771c-1.151,0.128-2.271,0.338-3.411,0.5
	c-3.2,0.448-6.357,0.997-9.464,1.698c-1.087,0.247-2.157,0.522-3.232,0.799c-3.283,0.84-6.498,1.815-9.657,2.924
	c-0.731,0.259-1.468,0.498-2.193,0.771c-42.161,15.776-72.09,55.077-72.09,101.182c0,60.003,50.606,108.645,113.032,108.645
	c9.34,0,18.378-0.875,27.072-2.456c-44.99-15.626-77.481-59.993-77.481-112.383c0-16.759,3.356-32.675,9.358-47.106
	c11.888,17.378,31.399,28.332,52.779,28.332c2.033,0,4.092-0.101,6.12-0.301c2.493-0.245,5.019-0.615,7.508-1.101
	c19.103-3.728,35.295-15.642,46.827-34.455c4.34-7.08,7.852-14.934,10.563-23.231C182.707,153.908,154.467,144.677,121.29,144.677z"
	/>
<g>
	<path style="fill:#EDEBED;" d="M87.728,178.766c7.207,20.991,27.707,35.023,49.794,32.851c1.964-0.193,3.953-0.483,5.962-0.875
		c42.323-8.258,58.839-69.677,46.452-113.032c-11.161-39.062-48.172-77.075-105.978-70.882
		c-40.162,4.303-59.183,37.849-34.409,54.366c0,0,36.645-8.258,43.871,19.097c4.539,17.184-0.728,32.862-5.504,46.244
		C84.198,156.95,84.137,168.306,87.728,178.766L87.728,178.766z"/>
	<path style="fill:#EDEBED;" d="M512,447.989c0,25.084-18.486,37.849-41.29,37.849s-41.29-12.765-41.29-37.849
		S447.906,395,470.71,395S512,422.905,512,447.989z"/>
	<path style="fill:#EDEBED;" d="M132.129,447.989c0,25.084-18.486,37.849-41.29,37.849s-41.29-12.765-41.29-37.849
		S68.035,395,90.839,395S132.129,422.905,132.129,447.989z"/>
</g>
<g>
	<path style="fill:#DBD9DC;" d="M82.581,449.136c0-19.2,8.193-39.78,20.367-51.46c-3.83-1.712-7.894-2.676-12.109-2.676
		c-22.804,0-41.29,27.905-41.29,52.989c0,25.085,18.486,37.85,41.29,37.85c2.838,0,5.607-0.2,8.284-0.595
		C89.134,478.188,82.581,466.207,82.581,449.136z"/>
	<path style="fill:#DBD9DC;" d="M462.452,449.136c0-19.2,8.193-39.78,20.367-51.46c-3.83-1.712-7.894-2.676-12.109-2.676
		c-22.804,0-41.29,27.905-41.29,52.989c0,25.085,18.486,37.85,41.29,37.85c2.838,0,5.607-0.2,8.284-0.595
		C469.005,478.188,462.452,466.207,462.452,449.136z"/>
	<path style="fill:#DBD9DC;" d="M424.063,169.535c-17.487-26.121-15.36-58.036,13.064-77.065c4.572-3.061,9.572-5.542,14.773-7.543
		c-15.965-0.049-33.53,5.083-47.68,14.556c-28.424,19.029-32.298,48.335-16.978,71.219c12.701,18.971,34.609,27.518,57.923,19.063
		C437.079,185.056,429.85,178.179,424.063,169.535z"/>
</g>
<g>
</g>
<g>
</g>
<g>
</g>
<g>
</g>
<g>
</g>
<g>
</g>
<g>
</g>
<g>
</g>
<g>
</g>
<g>
</g>
<g>
</g>
<g>
</g>
<g>
</g>
<g>
</g>
<g>
</g>
</svg>
