<svg id="Capa_1" enable-background="new 0 0 512 512" height="512" viewBox="0 0 512 512" width="512" xmlns="http://www.w3.org/2000/svg"><g><path d="m255.717 66.599-174.684 175.817v236.384c0 8.414 6.821 15.234 15.234 15.234h318.9c8.414 0 15.234-6.821 15.234-15.234v-236.384z" fill="#c0d6f2"/><path d="m255.717 66.599-17.521 17.635 157.163 158.182v236.384c0 8.414-6.821 15.234-15.234 15.234h35.042c8.414 0 15.234-6.821 15.234-15.234v-236.384z" fill="#b2caec"/><path d="m228.61 93.883c2.149.324 4.218 1.301 5.872 2.955l195.919 195.919v-50.341l-174.684-175.817z" fill="#b2caec"/><path d="m339.787 494.034h-167.574v-80.064c0-46.274 37.513-83.787 83.787-83.787s83.787 37.513 83.787 83.787z" fill="#838383"/><path d="m342.326 288.974h-172.652c-11.218 0-20.312-9.094-20.312-20.312v-77.186c0-11.218 9.094-20.312 20.312-20.312h172.653c11.218 0 20.312 9.094 20.312 20.312v77.186c0 11.218-9.094 20.312-20.313 20.312z" fill="#dc8758"/><path d="m203.773 230.069c-4.559-3.3-7.528-8.663-7.528-14.722 0-10.033 8.133-18.166 18.167-18.166 9.204 0 16.804 6.846 17.998 15.723h47.18c1.194-8.877 8.794-15.723 17.998-15.723 10.033 0 18.167 8.133 18.167 18.166 0 6.059-2.969 11.421-7.528 14.722 4.559 3.301 7.528 8.663 7.528 14.722 0 10.033-8.133 18.166-18.167 18.166-10.033 0-18.167-8.133-18.167-18.166 0-.829.061-1.644.168-2.444h-47.18c.108.8.168 1.614.168 2.444 0 10.033-8.133 18.166-18.167 18.166s-18.167-8.133-18.167-18.166c.002-6.059 2.971-11.422 7.53-14.722z" fill="#f4d7c8"/><path d="m342.326 171.163h-35.042c11.218 0 20.312 9.094 20.312 20.312v77.186c0 11.218-9.094 20.312-20.312 20.312h35.042c11.218 0 20.312-9.094 20.312-20.312v-77.186c.001-11.217-9.093-20.312-20.312-20.312z" fill="#d77f4a"/><path d="m256 330.183c-6.011 0-11.869.646-17.521 1.849 37.861 8.058 66.266 41.675 66.266 81.939v80.064h35.042v-80.065c0-46.274-37.512-83.787-83.787-83.787z" fill="#5a5a5a"/><g><path d="m18.999 300.933-13.645-13.645c-7.139-7.139-7.139-18.714 0-25.853l238.114-238.114c7.139-7.139 18.714-7.139 25.853 0l237.325 237.326c7.139 7.139 7.139 18.714 0 25.853l-13.644 13.644c-7.139 7.139-18.714 7.139-25.853 0l-203.307-203.306c-4.113-4.113-10.782-4.113-14.895 0l-204.095 204.095c-7.139 7.139-18.714 7.139-25.853 0z" fill="#528fd8"/></g></g></svg>