<svg height="511pt" viewBox="0 -20 511.99934 511" width="511pt" xmlns="http://www.w3.org/2000/svg"><path d="m423.660156 169.324219c78.105469-64.09375 48.820313-193.75 1.261719-164.566407-31.894531 19.574219-54.8125 50.136719-66.824219 68.890626 31.773438 23.328124 55.308594 56.871093 65.5625 95.675781zm0 0" fill="#e87e04"/><path d="m448.628906 3.328125c-6.929687-3.914063-15.007812-3.90625-23.707031 1.429687-31.894531 19.574219-54.8125 50.136719-66.824219 68.890626 31.773438 23.328124 55.308594 56.871093 65.5625 95.675781 5.984375-4.910157 11.332032-10.210938 16.097656-15.789063-9.554687-25.730468-25.105468-48.625-45-67.050781-8.828124-8.175781-9.953124-21.691406-2.640624-31.25 22.15625-28.964844 45.855468-46.574219 56.511718-51.90625zm0 0" fill="#d66e07"/><path d="m358.101562 73.640625c0 .003906 0 .003906-.003906.007813 18.296875 13.433593 33.851563 30.257812 45.71875 49.519531 31.988282-109.675781 62.121094-96.257813 62.121094-96.257813-7.527344-20.417968-22.339844-33.617187-41.015625-22.152344-26.890625 16.5-49.9375 42.53125-66.820313 68.882813zm0 0" fill="#f3a334"/><path d="m448.628906 3.328125c-12.226562-6.90625-22.496094-.007813-33.875 8.25-22.332031 16.230469-44.644531 42.054687-56.65625 62.070313 17.703125 12.996093 33.496094 29.6875 45.71875 49.519531 2.144532-7.347657 4.277344-14.121094 6.394532-20.402344-4.800782-5.742187-9.953126-11.1875-15.453126-16.28125-8.828124-8.175781-9.953124-21.691406-2.640624-31.246094 22.15625-28.96875 45.855468-46.578125 56.511718-51.910156zm0 0" fill="#ee911c"/><path d="m88.484375 169.324219c10.347656-38.871094 34-72.453125 65.894531-95.773438-12.070312-18.808593-34.957031-49.253906-66.765625-68.785156-47.546875-29.191406-76.855469 100.230469.871094 164.558594zm0 0" fill="#e87e04"/><path d="m84.726562 3.199219c-45.808593-22.339844-72.378906 103.109375 3.757813 166.125 1.398437-5.253907 3.046875-10.40625 4.917969-15.453125-46.28125-54.191406-36.980469-135.125-8.675782-150.671875zm0 0" fill="#d66e07"/><path d="m108.589844 122.855469c11.914062-19.1875 27.5-35.929688 45.789062-49.304688-12.070312-18.808593-34.957031-49.253906-66.765625-68.785156-17.800781-10.929687-33.042969.394531-41.074219 22.195313 0 0 30.078126-13.40625 62.050782 95.894531zm0 0" fill="#f3a334"/><path d="m65.058594 33.472656c4.042968-14.496094 10.953125-25.488281 19.667968-30.273437-8.578124-4.183594-16.484374-3.183594-23.164062 1.621093-.019531.011719-.035156.023438-.050781.035157-7.105469 5.132812-11.914063 13.847656-14.964844 22.105469.125-.054688 7.386719-3.15625 18.511719 6.511718zm0 0" fill="#ee911c"/><path d="m447.859375 218.484375c-10.503906-7.324219-17.765625-18.480469-19.648437-31.144531-12.484376-83.910156-84.828126-148.285156-172.210938-148.285156-87.386719 0-159.726562 64.375-172.210938 148.285156-1.882812 12.664062-9.144531 23.820312-19.648437 31.144531-51.527344 35.933594-76.105469 87.792969-58.460937 146.234375.707031 2.347656 3.851562 2.757812 5.117187.660156l7.691406-12.777344c0 1.027344 8.390625 35.117188 35.449219 70.261719 1.136719 1.476563 3.445312 1.179688 4.15625-.542969l4.695312-11.375c.726563-1.761718 2.925782-2.324218 4.425782-1.144531 103.355468 81.121094 274.308594 81.042969 377.570312 0 1.5-1.179687 3.699219-.617187 4.425782 1.144531l4.691406 11.375c.710937 1.722657 3.023437 2.019532 4.160156.542969 27.980469-36.34375 35.445312-70.261719 35.445312-70.261719l7.695313 12.777344c1.261719 2.097656 4.40625 1.6875 5.113281-.660156 17.683594-58.5625-7.039062-110.375-58.457031-146.234375zm0 0" fill="#f6e1c6"/><path d="m39.09375 352.597656-7.695312 12.78125c-1.261719 2.097656-4.40625 1.683594-5.113282-.660156-17.679687-58.542969 7.023438-110.367188 58.460938-146.234375 10.5-7.324219 17.761718-18.480469 19.648437-31.144531 11.988281-80.589844 79.191407-143.148438 161.90625-147.976563-3.40625-.199219-6.839843-.308593-10.300781-.308593-87.386719 0-159.726562 64.371093-172.210938 148.285156-1.882812 12.664062-9.144531 23.820312-19.648437 31.144531-51.484375 35.902344-76.121094 87.746094-58.460937 146.234375.707031 2.347656 3.851562 2.757812 5.117187.660156l7.691406-12.777344c.003907 0 7.464844 33.917969 35.449219 70.261719 1.136719 1.476563 3.445312 1.179688 4.15625-.542969l4.695312-11.375c.386719-.941406 1.195313-1.523437 2.089844-1.699218-20.085937-30.765625-25.785156-56.644532-25.785156-56.648438zm0 0" fill="#e2c8ac"/><path d="m83.789062 187.339844c-1.882812 12.664062-9.144531 23.820312-19.648437 31.144531-51.527344 35.933594-76.105469 87.792969-58.460937 146.234375.707031 2.347656 3.851562 2.757812 5.117187.660156l7.691406-12.777344c0 1.027344 8.390625 35.117188 35.449219 70.261719 1.136719 1.476563 3.445312 1.179688 4.15625-.542969l4.695312-11.375c.726563-1.761718 2.925782-2.324218 4.425782-1.144531 17.121094 13.4375 37.363281 25.375 59.976562 35.042969-119.046875-121.710938 68.6875-144.171875 101.976563-197.09375 27.546875-43.789062-8.023438-162.378906-21.121094-202.003906-64.800781 18.527344-114.152344 73.652344-124.257813 141.59375zm0 0" fill="#f3a334"/><path d="m18.488281 352.597656s7.464844 33.917969 35.449219 70.261719c1.101562 1.433594 3.4375 1.203125 4.15625-.539063 3.355469-8.125 2.554688-6.1875 4.695312-11.375.347657-.847656 1.117188-1.507812 2.089844-1.699218-20.085937-30.769532-25.785156-56.644532-25.785156-56.648438l-7.695312 12.78125c-1.261719 2.097656-4.40625 1.683594-5.113282-.660156-17.679687-58.542969 7.023438-110.367188 58.460938-146.234375 10.5-7.324219 17.761718-18.480469 19.648437-31.144531 9.121094-61.3125 50.203125-112.179688 105.757813-135.136719-.75-2.328125-1.457032-4.492187-2.105469-6.457031-65.480469 18.722656-114.246094 74.332031-124.253906 141.574218-1.785157 11.980469-8.601563 23.457032-19.652344 31.164063-50.960937 35.542969-76.265625 87.265625-58.460937 146.234375.664062 2.203125 3.46875 2.695312 4.855468 1.023438.09375-.113282.179688-.234376.257813-.363282zm0 0" fill="#ee911c"/><path d="m428.210938 187.339844c1.882812 12.664062 9.144531 23.820312 19.648437 31.144531 51.527344 35.933594 76.105469 87.792969 58.460937 146.234375-.707031 2.34375-3.851562 2.757812-5.113281.660156l-7.695312-12.78125c0 .003906-7.464844 33.921875-35.449219 70.261719-1.136719 1.476563-3.445312 1.183594-4.15625-.539063l-4.691406-11.375c-.730469-1.765624-2.929688-2.324218-4.429688-1.148437-17.117187 13.4375-37.363281 25.378906-59.976562 35.046875 119.050781-121.710938-68.6875-144.171875-101.976563-197.09375-27.542969-43.789062 8.023438-162.378906 21.121094-202.003906 64.800781 18.527344 114.148437 73.652344 124.257813 141.59375zm0 0" fill="#f3a334"/><path d="m422.921875 425.0625c80.851563-104.574219-87.957031-127.394531-119.355469-177.3125-26.171875-41.605469 4.632813-150.726562 19.003906-195.496094-6.046874-2.503906-12.253906-4.6875-18.617187-6.507812-13.097656 39.625-48.667969 158.214844-21.121094 202.003906 33.289063 52.921875 221.023438 75.382812 101.976563 197.09375 13.621094-5.824219 26.375-12.476562 38.113281-19.78125zm0 0" fill="#ee911c"/><path d="m256 370.699219c0 15.054687-11.082031 27.488281-25.527344 29.675781v26.226562c0 5.636719 4.574219 10.207032 10.210938 10.207032h30.628906c5.640625 0 10.210938-4.570313 10.210938-10.207032v-26.226562c-14.441407-2.191406-25.523438-14.621094-25.523438-29.675781zm0 0" fill="#fff"/><path d="m251.078125 426.597656v-15.003906c0-6.003906 3.515625-11.351562 8.890625-14.035156 2.292969-1.144532 4.414062-2.582032 6.328125-4.25-6.308594-5.5-10.296875-13.582032-10.296875-22.609375 0 15.054687-11.082031 27.488281-25.523438 29.675781v26.226562c0 5.636719 4.570313 10.207032 10.207032 10.207032h20.605468c-5.640624 0-10.210937-4.570313-10.210937-10.210938zm0 0" fill="#e4e3e1"/><path d="m371.835938 239.234375c0 11.664063-9.457032 21.121094-21.125 21.121094-11.664063 0-21.121094-9.457031-21.121094-21.121094 0-11.667969 9.457031-21.125 21.121094-21.125 11.667968 0 21.125 9.457031 21.125 21.125zm0 0" fill="#525468"/><path d="m182.878906 239.234375c0 11.664063-9.457031 21.121094-21.125 21.121094-11.664062 0-21.121094-9.457031-21.121094-21.121094 0-11.667969 9.457032-21.125 21.121094-21.125 11.667969 0 21.125 9.457031 21.125 21.125zm0 0" fill="#525468"/><path d="m316.097656 353.808594c-4.265625 0-7.722656 3.460937-7.722656 7.726562v9.164063c0 12.308593-10.015625 22.324219-22.324219 22.324219-12.308593 0-22.324219-10.015626-22.324219-22.324219v-42.949219c0-4.265625-3.457031-7.726562-7.726562-7.726562-4.265625 0-7.726562 3.460937-7.726562 7.726562v42.949219c0 12.308593-10.011719 22.324219-22.320313 22.324219-12.3125 0-22.324219-10.015626-22.324219-22.324219v-9.164063c0-4.265625-3.460937-7.726562-7.726562-7.726562s-7.726563 3.460937-7.726563 7.726562v9.164063c0 35.992187 45.9375 51.566406 67.828125 22.859375 21.871094 28.683594 67.824219 13.171875 67.824219-22.859375v-9.164063c-.003906-4.265625-3.460937-7.726562-7.730469-7.726562zm0 0" fill="#e2c8ac"/><path d="m298.808594 315.527344c0-13.007813-19.109375-23.554688-42.679688-23.554688-23.570312 0-42.675781 10.546875-42.675781 23.554688 0 13.007812 19.105469 23.554687 42.675781 23.554687 23.570313 0 42.679688-10.546875 42.679688-23.554687zm0 0" fill="#af7561"/><path d="m350.191406 239.234375c0-7.925781 4.367188-14.820313 10.824219-18.433594-3.050781-1.707031-6.558594-2.691406-10.304687-2.691406-11.664063 0-21.121094 9.457031-21.121094 21.125 0 11.664063 9.457031 21.121094 21.121094 21.121094 3.746093 0 7.253906-.980469 10.304687-2.6875-6.453125-3.617188-10.824219-10.511719-10.824219-18.433594zm0 0" fill="#3e4151"/><path d="m161.234375 239.234375c0-7.925781 4.371094-14.820313 10.824219-18.433594-3.050782-1.707031-6.558594-2.691406-10.304688-2.691406-11.664062 0-21.121094 9.457031-21.121094 21.125 0 11.664063 9.457032 21.121094 21.121094 21.121094 3.746094 0 7.253906-.980469 10.304688-2.6875-6.453125-3.617188-10.824219-10.511719-10.824219-18.433594zm0 0" fill="#3e4151"/><path d="m234.054688 315.527344c0-11.046875 13.785156-20.3125 32.375-22.855469-3.296876-.453125-6.746094-.695313-10.300782-.695313-23.570312 0-42.675781 10.542969-42.675781 23.550782 0 13.007812 19.105469 23.554687 42.675781 23.554687 3.554688 0 7.003906-.242187 10.300782-.695312-18.589844-2.542969-32.375-11.808594-32.375-22.859375zm0 0" fill="#a0634a"/></svg>