<svg id="Capa_1" enable-background="new 0 0 512 512" height="512" viewBox="0 0 512 512" width="512" xmlns="http://www.w3.org/2000/svg"><g><path d="m391.686 143.871h-119.665c-99.924 0-180.928 81.004-180.928 180.928v56.675c0 56.393 45.715 102.108 102.108 102.108h198.485z" fill="#ebb044"/><path d="m267.544 483.585h-74.347c-56.392 0-102.105-45.713-102.105-102.105v-56.681c0-99.917 81.003-180.92 180.93-180.92h74.337c-99.917 0-180.92 81.003-180.92 180.92v56.681c.001 56.392 45.713 102.105 102.105 102.105z" fill="#e49542"/><path d="m133.672 406.534c-3.343 6.986-7.906 13.517-13.688 19.3-27.45 27.45-71.947 27.442-99.396-.008-27.45-27.45-27.45-71.939 0-99.388 5.783-5.783 12.314-10.346 19.3-13.688-12.558 26.14-7.995 58.437 13.672 80.105 21.666 21.666 53.972 26.237 80.112 13.679z" fill="#9d6b6b"/><path d="m85.73 444.71c-22.712 5.087-47.466-1.207-65.143-18.883-27.448-27.448-27.448-71.943 0-99.391 5.779-5.779 12.31-10.339 19.296-13.683-6.398 13.322-8.348 28.253-5.851 42.555-7.46 24.105-1.651 51.429 17.439 70.519 9.772 9.771 21.711 16.066 34.259 18.883z" fill="#8b5e5e"/><path d="m487.8 225.013v-119.789c0-42.42-34.389-76.809-76.809-76.809h-35.071l-8.53 80.766 50.233 56.142v83.382c0 19.379 15.71 35.089 35.089 35.089h29.645c16.372 0 29.645-13.272 29.645-29.645-.002-14.51-10.432-26.578-24.202-29.136z" fill="#9d6b6b"/><path d="m185.568 225.013v-119.789c0-42.42 34.389-76.809 76.809-76.809h35.071l8.53 80.766-50.233 56.142v83.382c0 19.379-15.71 35.089-35.089 35.089h-29.645c-16.372 0-29.645-13.272-29.645-29.645.002-14.51 10.431-26.578 24.202-29.136z" fill="#9d6b6b"/><path d="m191.253 235.098c-4.332 5.154-6.938 11.796-6.938 19.052 0 16.372 13.277 29.649 29.649 29.649h-22.955c-16.372 0-29.641-13.277-29.641-29.649 0-7.257 2.606-13.899 6.938-19.052 4.332-5.146 10.374-8.804 17.26-10.085v-119.787c0-42.422 34.388-76.809 76.809-76.809h22.947c-42.414 0-76.802 34.388-76.802 76.809v119.786c-6.886 1.281-12.935 4.939-17.267 10.086z" fill="#8b5e5e"/><path d="m464.077 281.906c-3.562 1.229-7.39 1.888-11.366 1.888-19.378 0-35.091-15.713-35.091-35.091v-83.385l22.74-54.66v138.045c0 15.395 9.922 28.479 23.717 33.203z" fill="#8b5e5e"/><path d="m337.895 236.104c-13.599 0-24.624-11.024-24.624-24.624v-44.323h49.248v44.323c0 13.6-11.024 24.624-24.624 24.624z" fill="#e278b1"/><path d="m375.919 181.083h-78.471c-42.158 0-76.334-34.176-76.334-76.334 0-42.158 34.176-76.334 76.334-76.334h78.471c42.158 0 76.334 34.176 76.334 76.334 0 42.158-34.176 76.334-76.334 76.334z" fill="#ebb044"/><path d="m345.521 181.077h-48.071c-42.163 0-76.335-34.173-76.335-76.328 0-21.081 8.545-40.163 22.355-53.981 13.817-13.81 32.899-22.355 53.98-22.355h48.072c-21.074 0-40.163 8.545-53.973 22.355-13.81 13.817-22.355 32.899-22.355 53.981-.001 42.155 34.172 76.328 76.327 76.328z" fill="#e49542"/><path d="m384.204 130.315h-27.349v-101.9h-37.921v101.9h-27.349c-28.038 0-50.767 22.729-50.767 50.767v27.825c0 22.983 18.631 41.614 41.614 41.614 22.983 0 41.614-18.631 41.614-41.614 0-7.648 6.2-13.848 13.848-13.848 7.648 0 13.848 6.2 13.848 13.848 0 22.983 18.631 41.614 41.614 41.614 22.983 0 41.614-18.631 41.614-41.614v-27.825c.002-28.037-22.728-50.767-50.766-50.767z" fill="#f1d59d"/><g fill="#f1b986"><path d="m261.182 208.908v-27.825c0-28.038 22.729-50.767 50.767-50.767h-20.363c-28.038 0-50.767 22.729-50.767 50.767v27.825c0 22.983 18.631 41.614 41.614 41.614 3.513 0 6.923-.44 10.182-1.26-18.061-4.543-31.433-20.885-31.433-40.354z"/><path d="m372.106 208.908c0-7.648-6.2-13.848-13.848-13.848-4.032 0-7.651 1.734-10.181 4.485 2.27 2.466 3.667 5.748 3.667 9.364 0 22.983 18.631 41.614 41.614 41.614 3.513 0 6.923-.44 10.181-1.26-18.06-4.544-31.433-20.886-31.433-40.355z"/></g><g fill="#2b4d66"><path d="m288.7 112.475c-4.268 0-7.726-3.459-7.726-7.726v-13.545c0-4.267 3.459-7.726 7.726-7.726s7.726 3.459 7.726 7.726v13.545c.001 4.267-3.458 7.726-7.726 7.726z"/><path d="m387.091 112.475c-4.268 0-7.726-3.459-7.726-7.726v-13.545c0-4.267 3.459-7.726 7.726-7.726s7.726 3.459 7.726 7.726v13.545c0 4.267-3.459 7.726-7.726 7.726z"/></g><g><path d="m352.992 121.569h-30.194c-11.004 0-19.924 8.92-19.924 19.924 0 11.004 8.92 19.924 19.924 19.924h30.194c11.004 0 19.924-8.92 19.924-19.924.001-11.003-8.92-19.924-19.924-19.924z" fill="#365e7d"/><path d="m334.556 155.581c3.61 3.598 8.593 5.835 14.087 5.835h-25.847c-5.505 0-10.478-2.236-14.087-5.835-3.61-3.61-5.835-8.593-5.835-14.088 0-11.011 8.922-19.933 19.922-19.933h25.847c-11 0-19.922 8.922-19.922 19.933.001 5.495 2.237 10.478 5.835 14.088z" fill="#2b4d66"/></g><g fill="#e2a770"><g><path d="m403.098 170.834c-4.268 0-7.726-3.459-7.726-7.726v-.563c0-4.267 3.459-7.726 7.726-7.726s7.726 3.459 7.726 7.726v.563c0 4.266-3.459 7.726-7.726 7.726z"/><path d="m403.098 193.356c-4.268 0-7.726-3.459-7.726-7.726v-.563c0-4.267 3.459-7.726 7.726-7.726s7.726 3.459 7.726 7.726v.563c0 4.267-3.459 7.726-7.726 7.726z"/><path d="m386.205 182.095c-4.268 0-7.726-3.459-7.726-7.726v-.563c0-4.267 3.459-7.726 7.726-7.726s7.726 3.459 7.726 7.726v.563c.001 4.266-3.458 7.726-7.726 7.726z"/></g><g><path d="m272.693 170.834c-4.268 0-7.726-3.459-7.726-7.726v-.563c0-4.267 3.459-7.726 7.726-7.726 4.268 0 7.726 3.459 7.726 7.726v.563c.001 4.266-3.458 7.726-7.726 7.726z"/><path d="m272.693 193.356c-4.268 0-7.726-3.459-7.726-7.726v-.563c0-4.267 3.459-7.726 7.726-7.726 4.268 0 7.726 3.459 7.726 7.726v.563c.001 4.267-3.458 7.726-7.726 7.726z"/><path d="m289.586 182.095c-4.268 0-7.726-3.459-7.726-7.726v-.563c0-4.267 3.459-7.726 7.726-7.726s7.726 3.459 7.726 7.726v.563c0 4.266-3.459 7.726-7.726 7.726z"/></g></g><path d="m352.567 319.757v163.825h39.118c10.802 0 19.559-8.757 19.559-19.559s-8.757-19.559-19.559-19.559v-124.707" fill="#ebb044"/><path d="m352.567 319.757h22.652v163.821h-22.652z" fill="#e49542"/><path d="m313.449 319.757v163.825h39.118c10.802 0 19.559-8.757 19.559-19.559s-8.757-19.559-19.559-19.559v-124.707" fill="#ebb044"/><path d="m313.449 319.757h17.501v163.821h-17.501z" fill="#e49542"/><path d="m224.918 443.288v-72.095c0-36.955-29.958-66.913-66.913-66.913-36.955 0-66.913 29.958-66.913 66.913v52.239c0 33.22 26.93 60.15 60.15 60.15h73.676c11.127 0 20.147-9.02 20.147-20.147 0-11.127-9.02-20.147-20.147-20.147z" fill="#ebb044"/><path d="m246.61 443.288v-72.095c0-36.955-29.958-66.913-66.913-66.913-36.955 0-66.913 29.958-66.913 66.913v52.239c0 33.22 26.93 60.15 60.15 60.15h73.676c11.127 0 20.147-9.02 20.147-20.147 0-11.127-9.02-20.147-20.147-20.147z" fill="#e49542"/><path d="m245.07 463.436c0 11.126-9.024 20.15-20.15 20.15h-73.679c-33.223 0-60.152-26.939-60.152-60.152v-52.24c0-18.482 7.489-35.201 19.594-47.316 12.115-12.105 28.845-19.594 47.327-19.594 36.953 0 66.91 29.957 66.91 66.91v72.092c5.563 0 10.6 2.256 14.247 5.903s5.903 8.684 5.903 14.247z" fill="#ebb044"/><g fill="#e49542"><path d="m191.391 483.575h-40.15c-33.227 0-60.148-26.932-60.148-60.148v-52.234c0-18.481 7.491-35.208 19.596-47.322 12.104-12.104 28.841-19.595 47.312-19.595 6.996 0 13.734 1.073 20.08 3.065-10.412 3.261-19.719 9.008-27.242 16.531-12.114 12.114-19.606 28.841-19.606 47.322v52.234c0 33.215 26.932 60.147 60.158 60.147z"/><path d="m191.48 410.351v73.235h-15.453v-73.235c0-6.336-5.161-11.497-11.497-11.497s-11.486 5.161-11.486 11.497c0 4.265-3.462 7.726-7.726 7.726-4.265 0-7.726-3.462-7.726-7.726 0-14.866 12.084-26.95 26.939-26.95 14.854.001 26.949 12.085 26.949 26.95z"/></g></g></svg>