<?xml version="1.0" encoding="iso-8859-1"?>
<!-- Generator: Adobe Illustrator 19.0.0, SVG Export Plug-In . SVG Version: 6.00 Build 0)  -->
<svg version="1.1" id="Capa_1" xmlns="http://www.w3.org/2000/svg" xmlns:xlink="http://www.w3.org/1999/xlink" x="0px" y="0px"
	 viewBox="0 0 512 512" style="enable-background:new 0 0 512 512;" xml:space="preserve">
<path style="fill:#A28577;" d="M50.828,429.649C111.814,216.426,215.75,150.33,302.635,150.33
	c66.366,0,132.733,65.059,183.868,135.887s15.232,115.435-19.584,115.435c-22.547,0-38.877-34.842-47.871-42.431
	c-22.956-19.37-72.734-7.413-113.781-40.667c-5.054-4.094-12.628-2.256-15.206,3.716c-10.417,24.133-17.994,62.026-14.415,92.756
	c0.905,7.773-5.08,14.622-12.905,14.622L50.828,429.649L50.828,429.649z"/>
<path style="fill:#495059;" d="M304.137,125.662c-50.708,1.214-109.366,1.442-157.278,55.514
	c-46.724,52.732-90.74,82.413-116.098,88.724c-4.187,1.042-5.548,6.265-2.404,9.219c10.928,10.268,26.842,15.794,42.311,10.871
	c-2.533,22.216-35.629,100.211-69.463,132.932c-2.533,2.45-0.808,6.728,2.716,6.728h87.665c0,0,4.024-71.816,24.182-102.293
	c1.549-2.343,5.129-1.935,6.14,0.686c3.031,7.861,6.147,13.596,8.849,17.615c1.928,2.867,6.377,1.738,6.664-1.705
	c2.227-26.699,9.659-91.921,39.528-118.125c1.93-1.693,4.954-0.771,5.689,1.689c1.464,4.908,4.001,9.384,6.43,12.845
	c1.96,2.792,6.202,2.26,7.547-0.875c10.259-23.914,60.162-70.827,99.565-72.591c20.881-0.935,39.161,0.395,55.918,4.344
	c8.134,1.917,15.316,6.686,20.187,13.475c5.782,8.059,11.884,18.508,14.423,26.803c1.297,4.24,6.556,5.619,9.798,2.595
	c5.283-4.928,7.399-10.326,7.399-19.44C398.255,160.504,357.67,124.381,304.137,125.662z"/>
<path style="fill:#A28577;" d="M296.743,197.718L296.743,197.718c-12.627-1.105-22.828-10.765-24.618-23.314l0,0
	c-2.623-18.392,1.806-37.096,12.398-52.36l24.767-35.689c3.52-5.073,10.912-5.379,14.84-0.616l0,0
	c11.008,13.35,15.204,31.049,11.361,47.919l-9.785,42.952C322.68,189.894,310.315,198.905,296.743,197.718z"/>
<ellipse style="fill:#F2937E;" cx="366.42" cy="287.61" rx="29.537" ry="23.522"/>
<path style="fill:#495059;" d="M383.637,271.642c-4.143,0-7.5-3.357-7.5-7.5v-10.43c0-4.143,3.357-7.5,7.5-7.5s7.5,3.357,7.5,7.5
	v10.43C391.137,268.284,387.779,271.642,383.637,271.642z"/>
<path style="fill:#FFF0C0;" d="M466.919,401.653c32.565,0,66.076-39.031,28.423-102.04c-23.616,4.132-36.894,22.952-40.409,37.852
	c-3.663,15.526-17.628,25.393-28.517,30.581C435.894,381.014,449.562,401.653,466.919,401.653z"/>
<path style="opacity:0.15;enable-background:new    ;" d="M335.491,133.659c2.813-12.347,1.302-25.131-4.016-36.336
	c-22.486,19.097-49.489,87.762-17.802,96.267c5.915-3.739,10.377-9.712,12.033-16.979L335.491,133.659z"/>
<ellipse transform="matrix(-0.3554 -0.9347 0.9347 -0.3554 322.3478 930.598)" style="opacity:0.1;enable-background:new    ;" cx="482.053" cy="354.15" rx="14.66" ry="12.264"/>
<path style="opacity:0.1;enable-background:new    ;" d="M466.919,401.653c12.088,0,24.304-5.383,32.965-15.368
	c-32.943,6.535-65.296-58.485-99.161-64.296c-26.986-4.63-52.712-34.712-76.573-31.999c-20.014,2.276-35.39,15.283-37.331,40.506
	l0,0c1.042-2.88,2.124-5.636,3.242-8.225c2.578-5.972,10.152-7.811,15.206-3.716c41.046,33.254,90.825,21.297,113.781,40.667
	C428.043,366.811,444.372,401.653,466.919,401.653z"/>
<g>
</g>
<g>
</g>
<g>
</g>
<g>
</g>
<g>
</g>
<g>
</g>
<g>
</g>
<g>
</g>
<g>
</g>
<g>
</g>
<g>
</g>
<g>
</g>
<g>
</g>
<g>
</g>
<g>
</g>
</svg>
