<?xml version='1.0' encoding='iso-8859-1'?>
<svg version="1.1" xmlns="http://www.w3.org/2000/svg" viewBox="0 0 444.417 444.417" xmlns:xlink="http://www.w3.org/1999/xlink" enable-background="new 0 0 444.417 444.417">
  <path d="m150.522,236.323v5.046c0,4.418-3.582,8-8,8s-8-3.582-8-8v-5.046c0-4.418 3.582-8 8-8s8,3.582 8,8zm37.273,5.366c-8.074,21.238-25.845,34.961-45.273,34.961s-37.2-13.723-45.275-34.961c-0.696-1.831-0.697-3.854 0-5.686 8.076-21.24 25.847-34.964 45.275-34.964s37.199,13.725 45.273,34.964c0.696,1.831 0.696,3.855 0,5.686zm-16.139-2.843c-6.055-13.344-17.234-21.807-29.134-21.807s-23.081,8.463-29.136,21.807c6.055,13.342 17.235,21.804 29.136,21.804 11.9,0 23.08-8.462 29.134-21.804zm269.924,111.584c-3.375,2.85-8.422,2.427-11.274-0.948-9.375-11.097-19.248-20.694-29.309-28.604-4.499,9.147-9.832,17.923-15.956,26.226 11.564,15.962 21.379,35.614 28.716,58.109 1.37,4.2-0.924,8.716-5.125,10.086-4.202,1.368-8.717-0.924-10.086-5.125-6.234-19.112-14.482-36.082-24.066-50.098-2.158,2.407-4.39,4.765-6.694,7.069-32.726,32.727-76.066,50.749-122.037,50.749h-47.082c-45.971,0-89.311-18.022-122.037-50.749-2.305-2.305-4.536-4.661-6.694-7.068-9.585,14.016-17.833,30.984-24.067,50.097-1.37,4.202-5.885,6.494-10.086,5.125-4.2-1.37-6.495-5.886-5.125-10.086 7.337-22.495 17.153-42.146 28.717-58.108-6.125-8.304-11.458-17.079-15.957-26.227-10.061,7.91-19.932,17.507-29.307,28.604-2.851,3.375-7.898,3.798-11.274,0.948-3.375-2.852-3.799-7.899-0.948-11.274 11.066-13.099 22.872-24.307 34.99-33.37-7.225-19.164-10.998-39.646-10.998-60.676 0-24.549 5.091-48.255 15.139-70.522l-9.037-95.942c-1.89-20.078 3.614-37.746 15.496-49.749 1.684-1.701 4.039-2.564 6.423-2.338 16.819,1.558 32.391,11.555 43.846,28.15l24.531,35.533c23.674-11.742 49.929-17.919 76.388-17.919h47.082c26.459,0 52.716,6.178 76.387,17.919l24.532-35.533c11.456-16.596 27.028-26.594 43.847-28.15 2.386-0.219 4.74,0.637 6.423,2.338 11.883,12.006 17.386,29.674 15.495,49.749l-9.037,95.941c10.047,22.266 15.139,45.972 15.139,70.522 0,21.03-3.772,41.512-10.998,60.677 12.118,9.063 23.925,20.271 34.992,33.37 2.851,3.375 2.426,8.423-0.949,11.274zm-39.046-105.32c0-22.179-4.581-43.596-13.621-63.718-34.392-7.179-59.768-24.364-68.39-46.544-1.601-4.118 0.44-8.754 4.558-10.354 4.12-1.599 8.754,0.439 10.355,4.558 1.106,2.847 2.642,5.608 4.567,8.26 3.739-29.9 16.17-53.187 34.595-63.837 3.823-2.212 8.719-0.903 10.93,2.922s0.902,8.719-2.923,10.93c-16.011,9.255-26.508,33.546-27.674,63.748 8.971,5.904 20.337,10.655 33.311,13.77l8.261-87.698c1.285-13.637-1.672-25.568-8.362-34.075-10.591,2.216-20.525,9.456-28.306,20.729l-28.551,41.354c-2.333,3.378-6.844,4.443-10.44,2.464-22.62-12.445-48.185-19.106-74-19.29l29.742,66.185c1.811,4.03 0.012,8.766-4.019,10.576-4.028,1.813-8.765,0.013-10.576-4.018l-32.69-72.747h-14.141l-32.692,72.747c-1.811,4.029-6.544,5.829-10.576,4.018-4.03-1.811-5.829-6.546-4.018-10.576l29.743-66.185c-25.829,0.176-51.411,6.837-74.047,19.29-3.596,1.979-8.108,0.914-10.44-2.464l-28.55-41.354c-7.78-11.275-17.714-18.515-28.305-20.731-6.689,8.506-9.646,20.438-8.362,34.075l8.278,87.888c12.924-3.021 24.282-7.657 33.312-13.441-1.066-30.443-11.592-54.958-27.693-64.265-3.825-2.212-5.134-7.104-2.923-10.93 2.211-3.825 7.105-5.136 10.93-2.923 18.617,10.76 31.114,34.424 34.709,64.775 2.256-2.937 4.03-6.014 5.268-9.198 1.601-4.117 6.235-6.163 10.355-4.558 4.118,1.601 6.159,6.236 4.558,10.354-8.695,22.371-34.441,39.662-69.286,46.729-8.986,20.07-13.539,41.423-13.539,63.532 0,18.009 3.054,35.322 8.667,51.443 17.439-10.538 35.178-16.562 51.98-17.332 4.402-0.225 8.156,3.211 8.358,7.625 0.202,4.413-3.211,8.155-7.625,8.357-14.881,0.684-30.811,6.359-46.613,16.314 3.744,7.974 8.137,15.579 13.116,22.755 14.489-15.949 31.043-26.624 48.533-30.714 4.302-1.009 8.605,1.667 9.611,5.969s-1.667,8.605-5.969,9.611c-14.889,3.481-29.358,13.354-42.142,28.101 13.911,16.17 31.05,29.474 50.417,38.911-1.411-2.056-2.655-4.053-3.742-5.937-7.812-13.535-11.897-28.637-11.208-41.433 0.237-4.412 4.003-7.798 8.418-7.559 4.412,0.237 7.796,4.007 7.558,8.418-0.954,17.721 11.831,48.097 38.306,59.544 9.437,1.779 19.173,2.711 29.119,2.711h47.082c9.999,0 19.779-0.94 29.263-2.738 27.954-10.619 39.151-41.124 38.16-59.516-0.238-4.412 3.146-8.182 7.558-8.419 4.426-0.229 8.182,3.146 8.419,7.558 0.667,12.382-3.015,30.577-13.293,46.551 18.686-9.381 35.25-22.388 48.762-38.092-12.784-14.747-27.253-24.619-42.142-28.101-4.302-1.006-6.975-5.31-5.969-9.611 1.006-4.302 5.307-6.976 9.611-5.969 17.49,4.09 34.044,14.764 48.533,30.714 4.976-7.172 9.374-14.786 13.116-22.756-15.803-9.954-31.731-15.63-46.613-16.313-4.414-0.202-7.828-3.944-7.625-8.357 0.202-4.415 3.946-7.841 8.358-7.625 16.802,0.771 34.541,6.793 51.98,17.331 5.615-16.118 8.668-33.43 8.668-51.439zm-55.367-9.106c0.696,1.831 0.696,3.854 0,5.684-8.072,21.238-25.842,34.962-45.272,34.962-19.429,0-37.2-13.723-45.274-34.961-0.696-1.831-0.696-3.854 0-5.686 8.074-21.239 25.846-34.964 45.274-34.964 19.43,0.001 37.2,13.725 45.272,34.965zm-16.138,2.842c-6.053-13.345-17.232-21.807-29.134-21.807-11.901,0-23.081,8.463-29.135,21.807 6.055,13.342 17.234,21.804 29.135,21.804 11.902,0 23.081-8.461 29.134-21.804zm-29.134-10.523c-4.418,0-8,3.582-8,8v5.046c0,4.418 3.582,8 8,8s8-3.582 8-8v-5.046c0-4.418-3.582-8-8-8zm-45.193,81.493c1.342,2.745 1.003,6.015-0.873,8.427l-25.621,32.927v11.589l18.399,7.038c4.126,1.578 6.192,6.203 4.614,10.33s-6.204,6.193-10.331,4.613l-20.682-7.911-20.682,7.911c-0.94,0.36-1.907,0.53-2.857,0.53-3.219,0-6.254-1.957-7.474-5.144-1.579-4.127 0.487-8.752 4.614-10.33l18.398-7.038v-11.589l-25.621-32.927c-1.876-2.412-2.215-5.682-0.873-8.427s4.131-4.486 7.187-4.486h54.614c3.057,0.001 5.846,1.742 7.188,4.487zm-23.548,11.514h-21.892l10.946,14.066 10.946-14.066z"/>
</svg>
