<svg height="512" viewBox="0 0 60 60" width="512" xmlns="http://www.w3.org/2000/svg"><g id="Page-1" fill="none" fill-rule="evenodd"><g id="033---Pet-Adoption" fill="rgb(0,0,0)" fill-rule="nonzero" transform="translate(-1)"><path id="Shape" d="m10 60h42c1.6568542 0 3-1.3431458 3-3v-33.443l1.273.9c1.3553068.9535195 3.2269803.6278067 4.1804999-.7275001.9535196-1.3553067.6278068-3.2269803-.7274999-4.1804999l-9.726-6.849v-9.7c0-1.65685425-1.3431458-3-3-3h-4c-1.6568542 0-3 1.34314575-3 3v2.665l-7.274-5.119c-1.0366624-.72554149-2.4163376-.72554149-3.453 0l-27 19c-.99299696.6981886-1.4673874 1.9259751-1.20181116 3.1104494.26557623 1.1844744 1.21877367 2.0921751 2.41481116 2.2995506.17209576.0294846.34639688.0442048.521.044.61608278-.0002166 1.21696563-.1913113 1.72-.547l1.273-.896v33.443c0 1.6568542 1.34314575 3 3 3zm32-57c0-.55228475.4477153-1 1-1h4c.5522847 0 1 .44771525 1 1v8.294l-6-4.222zm-37.425 19.818c-.45169146.3069336-1.06609025.1947333-1.38014149-.2520387-.31405125-.446772-.21159896-1.0628713.23014149-1.3839613l27-19c.3456774-.24145571.8053226-.24145571 1.151 0l27 19c.3010311.2020687.4691093.5512468.4392734.9125794-.0298358.3613327-.2529115.6782126-.5830098.8281678-.3300984.1499552-.7155052.1094934-1.0072636-.1057472l-25.849-18.189c-.3454298-.24340041-.8065702-.24340041-1.152 0zm4.425-.668 22-15.482 22 15.482v34.85c0 .5522847-.4477153 1-1 1h-42c-.55228475 0-1-.4477153-1-1z"/><path id="Shape" d="m11 32.2c0 7.946 5.155 18.934 19.685 23.752.204515.0678778.425485.0678778.63 0 14.53-4.821 19.685-15.809 19.685-23.752 0-7.4-4.612-13.2-10.5-13.2-3.5537151.0181156-6.9608658 1.4186338-9.5 3.905-2.5391342-2.4863662-5.9462849-3.8868844-9.5-3.905-5.888 0-10.5 5.8-10.5 13.2zm10.5-11.2c3.3374662.0440368 6.5015158 1.4938934 8.714 3.993.1893188.2402095.4781536.3805743.784.381.3061974-.0001197.5954638-.1405153.785-.381 2.2131837-2.4998743 5.3784841-3.9498049 8.717-3.993 4.767 0 8.5 4.918 8.5 11.2 0 7.223-4.723 17.214-18 21.748-13.277-4.537-18-14.528-18-21.748 0-6.282 3.733-11.2 8.5-11.2z"/><path id="Shape" d="m36.426 39.4c-1.093-1.959-2.452-4.4-5.426-4.4s-4.333 2.441-5.426 4.4c-.3516417.6866353-.7643027 1.3402662-1.233 1.953-1.3113879 1.5649451-1.6740274 3.7166825-.948 5.625.6101225 1.3072255 1.9570247 2.1089436 3.397 2.022.8543873-.02089 1.6956685-.2147963 2.473-.57.5442102-.2586337 1.1349824-.4048813 1.737-.43.6020176.0251187 1.1927898.1713663 1.737.43.7773315.3552037 1.6186127.54911 2.473.57 1.4403288.0887284 2.7885578-.7118817 3.4-2.019.7260274-1.9083175.3633879-4.0600549-.948-5.625-.4698876-.6135705-.8835587-1.268215-1.236-1.956zm.367 6.734c-.2900298.5957253-.9249201.9430499-1.583.866-.6020176-.0251187-1.1927898-.1713663-1.737-.43-.7773315-.3552037-1.6186127-.54911-2.473-.57-.8543873.02089-1.6956685.2147963-2.473.57-.5442102.2586337-1.1349824.4048813-1.737.43-.657368.0775627-1.2920488-.2684447-1.583-.863-.4026742-1.200476-.1510773-2.5240118.664-3.493.5526855-.7093522 1.0381145-1.4686301 1.45-2.268 1.17-2.1 2-3.376 3.679-3.376s2.509 1.275 3.679 3.376c.4118855.7993699.8973145 1.5586478 1.45 2.268.8150773.9689882 1.0666742 2.292524.664 3.493z"/><path id="Shape" d="m22.059 30.657c.43 2.487 2.268 4.292 4.243 4.292.1846746.0001629.3690209-.0155617.551-.047 1.1451375-.2303728 2.1133736-.9897518 2.61-2.047 1.0658328-2.2744636.5986053-4.9724027-1.17-6.756-.806217-.8560989-1.9884699-1.2501048-3.1470788-1.0488176-1.158609.2012871-2.1386939.9709598-2.6089212 2.0488176-.5368873 1.1040151-.7044716 2.3514313-.478 3.558zm2.259-2.657c.2177639-.4911854.6497763-.8545776 1.171-.985.0724308-.0113063.145704-.016325.219-.015.4591671.028526.8915652.2258477 1.214.554 1.1206899 1.1739409 1.4209428 2.9086918.76 4.391-.2171877.4914268-.6488771.8552265-1.17.986-1.064.19-2.205-1.012-2.483-2.615-.1503119-.7831597-.0491577-1.5937935.289-2.316z"/><path id="Shape" d="m23.891 36.921c-.4927266-2.0113064-2.5123673-3.2514523-4.529-2.781-.9415372.3020774-1.6963338 1.0131443-2.054 1.935-.7488229 1.9252396-.06962 4.1125383 1.638 5.275.5506625.3670151 1.1962671.5657696 1.858.572.3157236-.0000466.6296183-.0479231.931-.142.9419919-.3016918 1.6972436-1.0128412 2.055-1.935.3734041-.9331111.4091284-1.9673476.101-2.924zm-1.948 2.157c-.1220371.3785817-.4206975.6740775-.8005577.7920749-.3798601.1179974-.7933817.0437294-1.1084423-.1990749-.897202-.6370383-1.2575378-1.7954361-.88-2.829.1347179-.3704102.4282546-.6610115.8-.792.1064965-.0332547.2174323-.0501142.329-.05.8273696.0998329 1.5053905.7036703 1.7 1.514.1662589.5105174.1521379 1.0626488-.04 1.564z"/><path id="Shape" d="m35.182 34.9c.181643.0314351.365657.04716.55.047 1.976 0 3.813-1.806 4.244-4.292.2254289-1.2054159.0586035-2.4513493-.476-3.555-.496957-1.0573938-1.4655566-1.8167669-2.611-2.047-2.168-.371-4.324 1.528-4.794 4.245s.913 5.227 3.087 5.602zm1.144-7.9c.0737487-.0001327.147366.0062252.22.019.5209875.1304213.952691.4938641 1.17.985.3373086.7210299.4384456 1.5301259.289 2.312-.277 1.6-1.416 2.8-2.482 2.615s-1.737-1.695-1.46-3.3c.259-1.489 1.263-2.631 2.263-2.631z"/><path id="Shape" d="m42.638 34.14c-2.0167265-.4710309-4.036747.7693482-4.529 2.781-.3084473.9565364-.2730767 1.9907715.1 2.924.3577564.9221588 1.1130081 1.6333082 2.055 1.935.3013817.0940769.6152764.1419534.931.142.6617329-.0062304 1.3073375-.2049849 1.858-.572 1.70762-1.1624617 2.3868229-3.3497604 1.638-5.275-.3574534-.9216352-1.1118425-1.6326644-2.053-1.935zm.246 4.265c-.1518375.5147509-.47593.961702-.918 1.266-.3150606.2428043-.7285822.3170723-1.1084423.1990749-.3798602-.1179974-.6785206-.4134932-.8005577-.7920749-.1912495-.5012819-.2046634-1.0530164-.038-1.563.322-1.036 1.248-1.7 2.025-1.465.3717454.1309885.6652821.4215898.8.792.1919025.5010517.2060224 1.0527883.04 1.563z"/></g></g></svg>