<svg id="Capa_1" enable-background="new 0 0 511.984 511.984" height="512" viewBox="0 0 511.984 511.984" width="512" xmlns="http://www.w3.org/2000/svg"><g><g><path d="m7.632 511.984c-1.953 0-3.906-.745-5.397-2.235-2.981-2.981-2.981-7.813 0-10.794l108.557-108.558c2.98-2.979 7.813-2.979 10.793 0 2.981 2.981 2.981 7.813 0 10.794l-108.556 108.558c-1.49 1.489-3.444 2.235-5.397 2.235z" fill="#21386b"/></g><path d="m194.374 421.546c-4.15 4.15-10.878 4.15-15.028 0l-88.908-88.908c-4.15-4.15-4.15-10.878 0-15.028l225.815-225.816 103.937 103.936z" fill="#d3effb"/><path d="m403.412 178.952-225.817 225.816c-4.15 4.15-10.878 4.15-15.028 0l16.778 16.778c4.15 4.15 10.878 4.15 15.028 0l225.817-225.816z" fill="#bed8fb"/><path d="m117.795 326.439c-.727-.727-.727-1.905 0-2.631l116.436-116.436c.439-.439 1.068-.63 1.677-.509s1.117.537 1.356 1.11c19.529 46.861 57.898 10.065 69.159 66.799.121.609-.07 1.241-.509 1.679l-117.739 117.737c-.727.727-1.905.727-2.631 0z" fill="#f9f6f9"/><g><path d="m284.285 240.858c.022.047.045.094.067.142 4.541 9.605 2.405 21.051-5.108 28.564l-109.162 109.162 15.462 15.462c.727.727 1.905.727 2.631 0l117.737-117.737c.44-.44.63-1.07.509-1.679-4.289-21.617-12.517-29.652-22.136-33.914z" fill="#dddaec"/></g><path d="m457.216 178.961-124.193-124.193c-1.932-1.932-5.065-1.932-6.998 0l-19.9 19.9c-1.932 1.932-1.932 5.065 0 6.998l124.193 124.193c1.932 1.932 5.065 1.932 6.998 0l19.9-19.9c1.932-1.933 1.932-5.066 0-6.998z" fill="#d0cee7"/><path d="m443.936 165.682-26.898 26.898 13.279 13.279c1.932 1.932 5.065 1.932 6.998 0l19.9-19.9c1.932-1.932 1.932-5.065 0-6.998z" fill="#beb9dd"/><path d="m384.691 65.352h63.531v60.35h-63.531z" fill="#7398d3" transform="matrix(.707 .707 -.707 .707 189.525 -266.5)"/><path d="m400.353 97.736h60.35v23.728h-60.35z" fill="#707dd3" transform="matrix(.707 -.707 .707 .707 48.6 336.531)"/><path d="m511.019 100.244-99.28-99.28c-1.286-1.286-3.371-1.286-4.657 0l-18.929 18.929c-1.286 1.286-1.286 3.371 0 4.657l99.28 99.28c1.286 1.286 3.371 1.286 4.657 0l18.929-18.929c1.286-1.286 1.286-3.371 0-4.657z" fill="#d0cee7"/><path d="m496.569 85.794-23.586 23.586 14.45 14.45c1.286 1.286 3.371 1.286 4.657 0l18.929-18.929c1.286-1.286 1.286-3.371 0-4.657z" fill="#beb9dd"/><path d="m144.079 427.932c-2.55 2.55-6.685 2.55-9.235 0l-50.792-50.792c-2.55-2.55-2.55-6.685 0-9.235l20.826-20.826 60.027 60.027z" fill="#7398d3"/><path d="m150.716 392.917-20.826 20.826c-2.55 2.55-6.685 2.55-9.235 0l14.189 14.189c2.55 2.55 6.685 2.55 9.235 0l20.826-20.826z" fill="#707dd3"/><g><g><path d="m355.029 201.333c-1.953 0-3.906-.745-5.397-2.235l-5.097-5.097c-2.98-2.981-2.98-7.813 0-10.794 2.981-2.979 7.813-2.979 10.794 0l5.097 5.097c2.98 2.981 2.98 7.813 0 10.794-1.49 1.49-3.444 2.235-5.397 2.235z" fill="#21386b"/></g><g><path d="m318.464 237.898c-1.954 0-3.906-.745-5.397-2.236l-5.097-5.098c-2.98-2.98-2.98-7.813.001-10.793 2.98-2.98 7.813-2.979 10.793.001l5.097 5.098c2.98 2.98 2.98 7.813-.001 10.793-1.489 1.49-3.443 2.235-5.396 2.235z" fill="#21386b"/></g><g><path d="m281.9 274.462c-1.953 0-3.906-.745-5.397-2.235l-5.097-5.097c-2.98-2.981-2.98-7.813 0-10.794 2.981-2.979 7.813-2.979 10.794 0l5.097 5.097c2.98 2.981 2.98 7.813 0 10.794-1.491 1.49-3.444 2.235-5.397 2.235z" fill="#21386b"/></g><g><path d="m245.335 311.028c-1.953 0-3.906-.745-5.397-2.235l-5.097-5.097c-2.98-2.98-2.981-7.813 0-10.793 2.98-2.981 7.812-2.98 10.794-.001l5.097 5.097c2.98 2.98 2.981 7.813.001 10.793-1.491 1.49-3.445 2.236-5.398 2.236z" fill="#21386b"/></g><g><path d="m208.77 347.592c-1.953 0-3.906-.745-5.397-2.235l-5.097-5.097c-2.981-2.981-2.981-7.813 0-10.794 2.98-2.979 7.813-2.979 10.793 0l5.097 5.097c2.981 2.981 2.981 7.813 0 10.794-1.489 1.49-3.443 2.235-5.396 2.235z" fill="#21386b"/></g></g></g></svg>