<svg id="Capa_1" enable-background="new 0 0 512.006 512.006" height="512" viewBox="0 0 512.006 512.006" width="512" xmlns="http://www.w3.org/2000/svg"><g><path d="m296.37 191.41c-10.223 0-19.232 6.229-23.109 15.262h-34.521c-3.877-9.033-12.886-15.262-23.109-15.262-13.859 0-25.134 11.275-25.134 25.134 0 5.154 1.602 10.136 4.472 14.29-2.87 4.155-4.472 9.136-4.472 14.291 0 13.859 11.275 25.134 25.134 25.134 12.102 0 22.234-8.598 24.608-20.006h31.522c2.375 11.408 12.507 20.006 24.609 20.006 13.858 0 25.134-11.275 25.134-25.134 0-5.154-1.602-10.135-4.472-14.291 11.529-16.686-.491-39.424-20.662-39.424zm10.134 53.714c0 5.588-4.546 10.134-10.134 10.134-6.001 0-10.869-5.268-10.037-11.515.285-2.143-.367-4.305-1.792-5.932-1.424-1.626-3.48-2.56-5.643-2.56h-45.797c-2.164 0-4.222.935-5.646 2.563-2.573 2.942-1.69 5.946-1.69 7.309 0 5.588-4.546 10.134-10.134 10.134s-10.134-4.546-10.134-10.134c0-8.32 7.307-7.453 7.307-14.291 0-6.831-7.307-5.971-7.307-14.29 0-5.588 4.546-10.134 10.134-10.134 5.05 0 9.366 3.767 10.038 8.762.501 3.722 3.677 6.5 7.433 6.5h45.797c3.755 0 6.932-2.777 7.433-6.499.673-4.996 4.988-8.763 10.039-8.763 9.776 0 13.881 12.591 5.929 18.349-1.948 1.41-3.103 3.669-3.103 6.075-.001 6.836 7.307 5.974 7.307 14.292z"/><path d="m504.606 255.213-194.454-194.455c-2.93-2.929-7.678-2.929-10.607 0s-2.929 7.678 0 10.606l194.454 194.455c4.004 4.003 4.005 10.484 0 14.489l-13.244 13.244c-4.004 4.004-10.484 4.006-14.489.001l-35.666-35.665c-.002-.002-.003-.004-.005-.005l-63.581-63.581v-.93c0-15.007-12.209-27.217-27.217-27.217h-.001-.929c-14.553-14.553-15.254-15.254-69.951-69.95-3.348-3.349-7.799-5.193-12.534-5.193s0 0 0 0c-4.73 0-9.183 1.841-12.533 5.192l-69.951 69.951c-18.485 0-28.914 13.452-28.914 27.217v1.696l-99.25 99.251c-4.006 4.005-10.484 4.004-14.489 0l-13.245-13.245c-1.935-1.935-3-4.508-3-7.245 0-2.736 1.066-5.31 3-7.245l231.138-231.137c4.005-4.004 10.485-4.005 14.489 0l11.169 11.169c2.93 2.929 7.678 2.929 10.607 0s2.929-7.677 0-10.606l-11.169-11.17c-9.866-9.866-25.835-9.868-35.703 0l-231.137 231.139c-4.768 4.768-7.394 11.108-7.394 17.851s2.626 13.083 7.394 17.851l13.245 13.245c9.866 9.866 25.835 9.868 35.702 0l22.318-22.318v112.521c0 4.142 3.358 7.5 7.5 7.5s7.5-3.358 7.5-7.5v-127.522l51.326-51.326v52.015c0 15.008 12.209 27.217 27.217 27.217h167.594.001c14.539 0 26.451-11.458 27.181-25.819.051-1.017.035 3.011.035-54.179l50.777 50.777v205.985c0 4.019-3.27 7.288-7.288 7.288h-65.671v-70.218c0-48.982-39.851-88.833-88.833-88.833s-88.833 39.85-88.833 88.833v70.218h-66.221c-4.019 0-7.288-3.269-7.288-7.288v-42.15c0-4.142-3.358-7.5-7.5-7.5s-7.5 3.358-7.5 7.5v42.15c0 12.29 9.998 22.288 22.288 22.288h309.557c12.29 0 22.288-9.998 22.288-22.288v-190.984l22.867 22.867c9.868 9.864 25.83 9.867 35.702-.001l13.245-13.245c9.869-9.866 9.869-25.834.003-35.701zm-322.439 224.353v-70.218c0-40.711 33.121-73.833 73.833-73.833s73.833 33.121 73.833 73.833v70.218zm72.29-372.756c1.031-1.032 2.759-1.092 3.852 0l59.345 59.345h-122.542zm-82.254 173.704c-6.736 0-12.217-5.48-12.217-12.217v-74.925c0-6.736 5.48-12.217 12.217-12.217h167.594c6.737 0 12.218 5.48 12.218 12.217 0 81.723.228 76.056-.55 78.553-1.549 4.97-6.193 8.588-11.668 8.588h-167.594z"/></g></svg>