<svg id="Capa_1" enable-background="new 0 0 512.016 512.016" height="512" viewBox="0 0 512.016 512.016" width="512" xmlns="http://www.w3.org/2000/svg"><g><path id="XMLID_1059_" d="m511.668 118.956c-.693-2.56-2.375-4.739-4.676-6.06l-29.515-16.935 14.931-26.021c1.319-2.3 1.672-5.03.979-7.591-.693-2.56-2.375-4.739-4.676-6.06l-38.164-21.897c-4.791-2.749-10.901-1.093-13.65 3.697l-14.931 26.021-29.515-16.935c-4.791-2.748-10.9-1.093-13.65 3.697l-21.897 38.163c-2.748 4.79-1.094 10.901 3.697 13.65l29.515 16.935-35.347 61.604c-35.564-12.274-74.403-12.363-110.325-.105-3.29 1.123-6.531 2.351-9.728 3.666-10.549-4.346-21.507-7.62-32.715-9.756v-72.153l22.225 17.139c2.1 1.619 4.76 2.335 7.388 1.999 2.631-.34 5.019-1.711 6.638-3.812l26.869-34.844c3.372-4.373 2.562-10.652-1.812-14.025l-87.2-67.245c-3.598-2.775-8.615-2.775-12.213 0l-87.2 67.245c-4.374 3.373-5.185 9.652-1.812 14.025l26.869 34.844c1.619 2.101 4.007 3.472 6.638 3.812 2.632.336 5.288-.38 7.388-1.999l22.221-17.139v72.154c-36.955 7.053-70.688 26.305-95.744 54.814-27.249 31.008-42.256 70.841-42.256 112.163 0 93.738 76.262 170 170 170 22.905 0 44.762-4.564 64.722-12.813 20.633 8.519 42.566 12.815 64.589 12.815 17.836 0 35.731-2.813 53.021-8.471 40.003-13.087 73.578-40.417 94.543-76.954 20.564-35.842 27.372-77.859 19.169-118.314-7.544-37.198-27.223-70.685-55.766-95.193l35.347-61.604 29.515 16.936c2.301 1.321 5.034 1.672 7.591.979 2.56-.693 4.739-2.375 6.06-4.676l21.898-38.164c1.32-2.301 1.672-5.031.979-7.592zm-491.668 223.051c0-74.562 55.614-138.437 129.362-148.58 4.95-.682 8.638-4.911 8.638-9.907v-100.984c0-3.812-2.167-7.292-5.588-8.974-3.421-1.683-7.501-1.273-10.519 1.055l-30.412 23.453-14.656-19.005 73.175-56.43 73.175 56.43-14.656 19.006-30.412-23.453c-3.019-2.329-7.098-2.738-10.519-1.055-3.421 1.682-5.588 5.162-5.588 8.974v100.983c0 4.996 3.688 9.227 8.638 9.907 6.534.898 12.987 2.239 19.325 3.986-10.32 6.384-19.913 13.859-28.631 22.281-3.758-.344-7.553-.522-11.332-.522-67.731 0-122.835 55.104-122.835 122.835s55.104 122.835 122.835 122.835 122.835-55.104 122.835-122.835c0-34.909-15.011-68.148-40.697-91.31 9.03-4.66 18.696-7.954 28.653-9.796 25.314 27.698 39.209 63.43 39.209 101.106 0 82.71-67.29 150-150 150s-150-67.29-150-150zm110.877 22.215c3.869 29.168 15.42 57.089 33.036 80.435-53.88-3.162-96.748-47.991-96.748-102.65 0-54.655 42.862-99.482 96.736-102.649-4.33 5.72-8.322 11.73-11.929 18.017-18.741 32.662-26.035 69.61-21.095 106.847zm79.352-73.421c6.506-11.338 14.862-20.965 24.467-28.727 23.982 19.457 38.139 48.912 38.139 79.933 0 32.217-14.896 61.017-38.159 79.886-39.206-31.581-49.883-86.762-24.447-131.092zm95.287-51.458c15.399.889 30.823 5.258 45.086 13.442 23.825 13.67 40.9 35.8 48.081 62.313 7.18 26.513 3.606 54.234-10.064 78.06-17.538 30.567-48.942 49.553-83.217 51.516 21.698-28.546 34.598-64.126 34.598-102.667 0-37.47-12.125-73.248-34.484-102.664zm170.905-93.259-29.515-16.936c-2.3-1.32-5.031-1.671-7.591-.979-2.56.693-4.739 2.375-6.06 4.676l-44.549 77.641c-2.486 4.333-1.393 9.837 2.562 12.892 58.919 45.5 75.367 128.581 38.26 193.253-34.608 60.315-105.048 88.172-170.194 69.948 10.325-6.403 19.917-13.878 28.619-22.273 3.88.365 7.747.546 11.591.546 43.644-.001 84.281-23.15 106.423-61.74 16.329-28.458 20.598-61.572 12.021-93.241-8.577-31.67-28.974-58.104-57.433-74.433-58.747-33.707-133.966-13.337-167.675 45.41-15.307 26.678-20.046 57.89-13.344 87.886 5.615 25.131 18.828 47.62 37.722 64.586-8.871 4.61-18.493 7.965-28.631 9.827-43.62-47.757-51.688-119.385-19.308-175.818 37.108-64.672 117.136-92.393 186.149-64.493 4.631 1.876 9.935.039 12.422-4.294l44.549-77.64c1.319-2.3 1.672-5.03.979-7.591-.693-2.56-2.375-4.739-4.676-6.06l-29.515-16.935 11.945-20.816 29.515 16.935c4.792 2.75 10.902 1.094 13.65-3.697l14.931-26.021 20.816 11.944-14.931 26.021c-1.319 2.3-1.672 5.03-.979 7.591.693 2.56 2.375 4.739 4.676 6.06l29.515 16.935z"/></g></svg>