<?xml version="1.0" encoding="iso-8859-1"?>
<!-- Generator: Adobe Illustrator 19.0.0, SVG Export Plug-In . SVG Version: 6.00 Build 0)  -->
<svg version="1.1" id="Capa_1" xmlns="http://www.w3.org/2000/svg" xmlns:xlink="http://www.w3.org/1999/xlink" x="0px" y="0px"
	 viewBox="0 0 512 512" style="enable-background:new 0 0 512 512;" xml:space="preserve">
<g>
	<g>
		<path d="M464.291,473.6l-11.636-34.909c-1.164-4.655-5.818-8.145-10.473-8.145H151.273v-75.636c0-8.146,3.491-16.291,8.146-23.273
			l57.018-65.164c11.636-12.8,11.636-32.582,0-46.545l-57.018-65.164c-5.818-5.818-8.145-13.964-8.145-23.273v-15.127
			c0-6.982-4.655-11.636-11.636-11.636c-6.982,0-11.636,4.655-11.636,11.636v17.455c0,13.964,4.655,27.927,13.964,38.4
			l57.018,65.164c3.491,4.655,3.491,10.473,0,15.127l-57.018,65.164c-9.309,10.473-13.964,24.436-13.964,38.4v86.109
			c0,6.982,4.655,11.636,11.636,11.636h294.4l8.145,24.436c-1.164,5.818-5.818,10.473-11.636,10.473H81.454
			c-5.818,0-10.473-4.655-11.636-10.473l8.145-24.436h15.127c6.982,0,11.636-4.655,11.636-11.636V116.364
			c0-6.982-4.655-11.636-11.636-11.636c-6.982,0-11.636,4.655-11.636,11.636v314.182H69.818c-4.655,0-9.309,3.491-10.473,8.145
			L47.709,473.6c-1.164,1.164-1.164,2.327-1.164,3.491c0,19.782,15.127,34.909,34.909,34.909h349.091
			c19.782,0,34.909-15.127,34.909-34.909C465.455,475.927,465.455,474.764,464.291,473.6z"/>
	</g>
</g>
<g>
	<g>
		<path d="M430.545,0H81.454C61.673,0,46.545,15.127,46.545,34.909c0,1.164,0,2.327,1.164,3.491l11.636,34.909
			c1.164,4.655,5.818,8.145,10.473,8.145h290.909v52.364c0,8.145-3.491,16.291-8.145,23.273l-57.018,64
			c-11.636,12.8-11.636,32.582,0,46.545l57.018,65.164c5.818,5.818,8.145,13.964,8.145,23.273v39.564
			c0,6.982,4.655,11.636,11.636,11.636S384,402.618,384,395.636v-40.727c0-13.964-4.655-27.927-13.964-38.4l-57.018-65.164
			c-3.491-4.655-3.491-10.473,0-15.127l57.018-65.164c9.309-10.473,13.964-24.436,13.964-38.4V69.818
			c0-6.982-4.655-11.636-11.636-11.636h-294.4l-8.145-24.436c1.164-5.818,5.818-10.473,11.636-10.473h349.091
			c5.818,0,10.473,4.655,11.636,10.473l-8.145,24.436h-15.127c-6.982,0-11.636,4.655-11.636,11.636v325.818
			c0,6.982,4.655,11.636,11.636,11.636s11.636-4.655,11.636-11.636V81.455h11.636c4.655,0,9.309-3.491,10.473-8.145L464.291,38.4
			c1.164-1.164,1.164-2.327,1.164-3.491C465.455,15.127,450.327,0,430.545,0z"/>
	</g>
</g>
<g>
	<g>
		<path d="M314.182,151.273H197.818c-6.982,0-11.636,4.655-11.636,11.636c0,6.982,4.655,11.636,11.636,11.636h116.364
			c6.982,0,11.636-4.655,11.636-11.636C325.818,155.927,321.164,151.273,314.182,151.273z"/>
	</g>
</g>
<g>
	<g>
		<circle cx="256" cy="302.545" r="11.636"/>
	</g>
</g>
<g>
	<g>
		<circle cx="256" cy="256" r="11.636"/>
	</g>
</g>
<g>
	<g>
		<path d="M340.945,372.364l-81.455-23.273c-2.327-1.164-4.655-1.164-5.818,0l-81.455,23.273
			c-6.982,2.327-10.473,8.145-9.309,15.127c2.327,5.818,8.145,9.309,13.964,8.145L256,372.364l77.964,22.109
			c1.164,0,2.327,0,3.491,0c4.655,0,9.309-3.491,11.636-8.146C351.418,380.509,346.764,373.527,340.945,372.364z"/>
	</g>
</g>
<g>
</g>
<g>
</g>
<g>
</g>
<g>
</g>
<g>
</g>
<g>
</g>
<g>
</g>
<g>
</g>
<g>
</g>
<g>
</g>
<g>
</g>
<g>
</g>
<g>
</g>
<g>
</g>
<g>
</g>
</svg>
