<svg id="Flat" height="512" viewBox="0 0 512 512" width="512" xmlns="http://www.w3.org/2000/svg"><g fill="#ad6643"><ellipse cx="112" cy="64" rx="24" ry="40"/><ellipse cx="48" cy="128" rx="24" ry="40"/><ellipse cx="192" cy="64" rx="24" ry="40"/><ellipse cx="256" cy="128" rx="24" ry="40"/></g><path d="m200 184a40.646 40.646 0 0 0 -4.12.21 34.294 34.294 0 0 0 4.12-16.21c0-22.091-21.49-40-48-40s-48 17.909-48 40a34.294 34.294 0 0 0 4.12 16.21 40.646 40.646 0 0 0 -4.12-.21 40 40 0 1 0 40 40c0-6.174 16-6.174 16 0a40 40 0 1 0 40-40z" fill="#95573a"/><ellipse cx="320" cy="288" fill="#ad6643" rx="24" ry="40"/><ellipse cx="256" cy="352" fill="#ad6643" rx="24" ry="40"/><ellipse cx="400" cy="288" fill="#ad6643" rx="24" ry="40"/><ellipse cx="464" cy="352" fill="#ad6643" rx="24" ry="40"/><path d="m408 408a40.646 40.646 0 0 0 -4.12.21 34.294 34.294 0 0 0 4.12-16.21c0-22.091-21.49-40-48-40s-48 17.909-48 40a34.294 34.294 0 0 0 4.12 16.21 40.646 40.646 0 0 0 -4.12-.21 40 40 0 1 0 40 40c0-6.174 16-6.174 16 0a40 40 0 1 0 40-40z" fill="#95573a"/></svg>