<svg height="368pt" viewBox="0 0 368.00483 368" width="368pt" xmlns="http://www.w3.org/2000/svg"><path d="m368.003906 40.003906c0-22.058594-17.945312-39.99999975-40-39.99999975-19.320312 0-35.480468 13.76562475-39.195312 31.99999975h-209.613282c-3.714843-18.234375-19.871093-31.99999975-39.191406-31.99999975-22.058594 0-39.99999975 17.94140575-39.99999975 39.99999975 0 13.070313 6.30078175 24.695313 16.02343775 32-9.722656 7.300782-16.02343775 18.925782-16.02343775 32 0 17.367188 11.19140575 32.03125 26.68749975 37.550782l-25.34375 38.015624c-1.640625 2.457032-1.792968 5.609376-.402344 8.207032 1.394532 2.601562 4.105469 4.226562 7.058594 4.226562h24v160h-24c-4.417968 0-7.99999975 3.574219-7.99999975 8 0 4.421875 3.58203175 8 7.99999975 8h352c4.414063 0 8-3.578125 8-8 0-4.425781-3.585937-8-8-8h-24v-160h24c2.949219 0 5.664063-1.625 7.054688-4.226562 1.390625-2.597656 1.238281-5.757813-.398438-8.207032l-25.347656-38.015624c15.496094-5.519532 26.691406-20.183594 26.691406-37.550782 0-13.074218-6.304687-24.699218-16.027344-32 9.722657-7.304687 16.027344-18.929687 16.027344-32zm-323.449218 103.597656c17.238281-1.976562 31.230468-14.832031 34.648437-31.597656h42.671875l-38.402344 64h-60.519531zm182.917968-31.597656 38.402344 64h-73.871094v-64zm-51.46875 64h-73.875l38.402344-64h35.472656zm-48 104v8h-80v-32h85.476563c-3.46875 7.285156-5.476563 15.40625-5.476563 24zm-80 24h80v48h-80zm96 48v-72c0-22.058594 17.941406-40 40-40 22.054688 0 40 17.941406 40 40v72zm176-64h-80v-8c0-8.59375-2.007812-16.714844-5.480468-24h85.480468zm-80 64v-48h80v48zm80-112h-96.890625c-10.101562-9.882812-23.902343-16-39.109375-16-15.210937 0-29.015625 6.117188-39.113281 16h-96.886719v-48h272zm-35.472656-64-38.402344-64h42.671875c3.417969 16.765625 17.402344 29.613282 34.648438 31.597656l21.601562 32.402344zm43.472656-112c-4.417968 0-8 3.574219-8 8 0 4.421875 3.582032 8 8 8 13.230469 0 24 10.765625 24 24 0 13.230469-10.769531 24-24 24-13.234375 0-24-10.769531-24-24 0-4.425781-3.585937-8-8-8h-224c-4.417968 0-8 3.574219-8 8 0 13.230469-10.769531 24-24 24-13.234375 0-24-10.769531-24-24 0-13.234375 10.765625-24 24-24 4.414063 0 8-3.578125 8-8 0-4.425781-3.585937-8-8-8-13.234375 0-24-10.769531-24-24 0-13.234375 10.765625-24 24-24 13.230469 0 24 10.765625 24 24 0 4.421875 3.582032 8 8 8h224c4.414063 0 8-3.578125 8-8 0-13.234375 10.765625-24 24-24 13.230469 0 24 10.765625 24 24 0 13.230469-10.769531 24-24 24zm0 0"/></svg>